<svg width="391" height="307" viewBox="0 0 391 307" fill="none" xmlns="http://www.w3.org/2000/svg">
<rect x="6" y="6" width="379" height="295" rx="46" fill="#F9F9F9" stroke="black" stroke-width="12"/>
<rect x="61.0961" y="92.7331" width="39.4314" height="124.524" rx="3" fill="white"/>
<ellipse cx="80.9582" cy="60.6504" rx="28.7022" ry="27.2664" transform="rotate(-90 80.9582 60.6504)" fill="#363333"/>
<rect x="53.5455" y="81.2522" width="54.5328" height="11.4809" rx="5.74045" fill="#363333"/>
<path d="M61.9486 219.195L58.5793 215.649L99.6946 172.368L103.064 175.915L61.9486 219.195Z" fill="#1C6997"/>
<path d="M61.9486 237.742L58.5793 234.195L99.6946 190.914L103.064 194.461L61.9486 237.742Z" fill="#C54134"/>
<path d="M61.9487 115.05L58.5794 111.503L78.783 90.2358L82.1523 93.7825L61.9487 115.05Z" fill="#1C6997"/>
<path d="M61.9486 148.609L58.5793 145.063L99.6946 101.782L103.064 105.329L61.9486 148.609Z" fill="#1C6997"/>
<path d="M61.9486 166.207L58.5793 162.66L99.6946 119.38L103.064 122.926L61.9486 166.207Z" fill="#C54134"/>
<path d="M61.9486 184.753L58.5793 181.206L99.6946 137.926L103.064 141.472L61.9486 184.753Z" fill="#1C6997"/>
<path d="M61.9486 202.416L58.5793 198.869L99.6946 155.589L103.064 159.135L61.9486 202.416Z" fill="#C54134"/>
<path d="M61.9486 132.713L58.5793 129.166L96.083 89.6876L99.4522 93.2343L61.9486 132.713Z" fill="#C54134"/>
<rect x="99.6887" y="92.0021" width="3.35586" height="124.524" fill="#363333"/>
<rect x="58.5793" y="92.0021" width="3.35586" height="124.524" fill="#363333"/>
<rect x="60.2572" y="89.3527" width="42.7872" height="4.41573" fill="#363333"/>
<rect x="60.2572" y="215.643" width="42.7872" height="1.76629" fill="#363333"/>
<ellipse cx="80.8119" cy="31.5066" rx="2.09741" ry="2.20786" fill="#363333"/>
<ellipse cx="79.9713" cy="245.076" rx="28.7022" ry="27.2664" transform="rotate(90 79.9713 245.076)" fill="#363333"/>
<rect x="107.384" y="224.474" width="54.5328" height="11.4809" rx="5.74045" transform="rotate(180 107.384 224.474)" fill="#363333"/>
<ellipse cx="80.1176" cy="274.22" rx="2.09741" ry="2.20786" transform="rotate(180 80.1176 274.22)" fill="#363333"/>
<rect x="298.523" y="92.7331" width="39.4314" height="124.524" rx="3" fill="white"/>
<ellipse cx="318.385" cy="60.6504" rx="28.7022" ry="27.2664" transform="rotate(-90 318.385 60.6504)" fill="#363333"/>
<rect x="290.973" y="81.2522" width="54.5328" height="11.4809" rx="5.74045" fill="#363333"/>
<path d="M299.376 219.195L296.007 215.649L337.122 172.368L340.491 175.915L299.376 219.195Z" fill="#1C6997"/>
<path d="M299.376 237.742L296.007 234.195L337.122 190.914L340.491 194.461L299.376 237.742Z" fill="#C54134"/>
<path d="M299.376 115.05L296.007 111.503L316.21 90.2358L319.58 93.7825L299.376 115.05Z" fill="#1C6997"/>
<path d="M299.376 148.609L296.007 145.063L337.122 101.782L340.491 105.329L299.376 148.609Z" fill="#1C6997"/>
<path d="M299.376 166.207L296.007 162.66L337.122 119.38L340.491 122.926L299.376 166.207Z" fill="#C54134"/>
<path d="M299.376 184.753L296.007 181.206L337.122 137.926L340.491 141.472L299.376 184.753Z" fill="#1C6997"/>
<path d="M299.376 202.416L296.007 198.869L337.122 155.589L340.491 159.135L299.376 202.416Z" fill="#C54134"/>
<path d="M299.376 132.713L296.007 129.166L333.51 89.6876L336.879 93.2343L299.376 132.713Z" fill="#C54134"/>
<rect x="337.116" y="92.0021" width="3.35586" height="124.524" fill="#363333"/>
<rect x="296.007" y="92.0021" width="3.35586" height="124.524" fill="#363333"/>
<rect x="297.685" y="89.3527" width="42.7872" height="4.41573" fill="#363333"/>
<rect x="297.685" y="215.643" width="42.7872" height="1.76629" fill="#363333"/>
<ellipse cx="318.239" cy="31.5066" rx="2.09741" ry="2.20786" fill="#363333"/>
<ellipse cx="317.399" cy="245.076" rx="28.7022" ry="27.2664" transform="rotate(90 317.399 245.076)" fill="#363333"/>
<rect x="344.811" y="224.474" width="54.5328" height="11.4809" rx="5.74045" transform="rotate(180 344.811 224.474)" fill="#363333"/>
<ellipse cx="317.545" cy="274.22" rx="2.09741" ry="2.20786" transform="rotate(180 317.545 274.22)" fill="#363333"/>
<g filter="url(#filter0_d)">
<path d="M173.191 173.107C173.035 173.107 172.918 173.061 172.839 172.967C172.777 172.873 172.746 172.771 172.746 172.662C172.746 172.553 172.777 172.459 172.839 172.381C172.902 172.287 172.996 172.248 173.121 172.264C173.027 172.17 172.871 172.131 172.652 172.146C172.48 172.178 172.316 172.295 172.16 172.498C172.019 172.686 171.964 172.912 171.996 173.178C172.011 173.459 172.129 173.725 172.347 173.975C172.566 174.225 172.871 174.342 173.261 174.326C173.464 174.326 173.66 174.271 173.847 174.162C174.035 174.053 174.199 173.912 174.339 173.74C174.48 173.553 174.589 173.342 174.668 173.107C174.746 172.873 174.785 172.631 174.785 172.381C174.769 172.115 174.707 171.857 174.597 171.607C174.488 171.342 174.332 171.107 174.129 170.904C173.941 170.686 173.707 170.514 173.425 170.389C173.144 170.248 172.824 170.178 172.464 170.178C171.746 170.178 171.183 170.396 170.777 170.834C170.371 171.271 170.183 171.912 170.214 172.756C170.23 173.178 170.339 173.607 170.543 174.045C170.746 174.467 171.027 174.85 171.386 175.193C171.761 175.537 172.199 175.811 172.699 176.014C173.214 176.232 173.777 176.342 174.386 176.342C174.949 176.342 175.441 176.232 175.863 176.014C176.285 175.795 176.644 175.514 176.941 175.17C177.238 174.811 177.457 174.404 177.597 173.951C177.754 173.498 177.832 173.029 177.832 172.545C177.832 172.232 177.777 171.889 177.668 171.514C177.574 171.139 177.394 170.74 177.129 170.318C176.879 169.896 176.543 169.451 176.121 168.982C175.699 168.514 175.168 168.037 174.527 167.553C173.902 167.068 173.308 166.615 172.746 166.193C172.199 165.771 171.714 165.357 171.293 164.951C170.886 164.529 170.558 164.092 170.308 163.639C170.074 163.17 169.957 162.646 169.957 162.068C169.957 161.49 170.058 160.936 170.261 160.404C170.48 159.857 170.793 159.381 171.199 158.975C171.621 158.568 172.136 158.248 172.746 158.014C173.355 157.764 174.05 157.654 174.832 157.686C175.285 157.701 175.714 157.779 176.121 157.92C176.543 158.061 176.933 158.201 177.293 158.342C177.668 158.482 178.019 158.6 178.347 158.693C178.675 158.771 178.98 158.756 179.261 158.646C179.386 158.6 179.496 158.529 179.589 158.436C179.668 158.357 179.746 158.256 179.824 158.131C179.902 158.006 179.957 157.834 179.988 157.615L180.644 157.662C180.597 157.959 180.543 158.334 180.48 158.787C180.418 159.24 180.371 159.717 180.339 160.217C180.324 160.701 180.332 161.186 180.363 161.67C180.394 162.139 180.472 162.545 180.597 162.889L179.988 163.029C179.847 162.592 179.683 162.154 179.496 161.717C179.324 161.264 179.113 160.85 178.863 160.475C178.629 160.1 178.355 159.764 178.043 159.467C177.73 159.17 177.363 158.936 176.941 158.764C176.566 158.623 176.183 158.529 175.793 158.482C175.418 158.42 175.05 158.443 174.691 158.553C174.347 158.662 174.011 158.857 173.683 159.139C173.371 159.42 173.082 159.826 172.816 160.357C172.55 160.889 172.441 161.482 172.488 162.139C172.55 162.795 172.73 163.365 173.027 163.85C173.199 164.162 173.402 164.459 173.636 164.74C173.886 165.006 174.144 165.264 174.41 165.514C174.675 165.748 174.949 165.982 175.23 166.217C175.527 166.451 175.816 166.686 176.097 166.92C176.644 167.404 177.152 167.889 177.621 168.373C178.089 168.857 178.488 169.357 178.816 169.873C179.16 170.373 179.425 170.896 179.613 171.443C179.8 171.975 179.894 172.521 179.894 173.084C179.894 173.662 179.754 174.225 179.472 174.771C179.191 175.318 178.8 175.803 178.3 176.225C177.816 176.646 177.246 176.982 176.589 177.232C175.949 177.498 175.269 177.631 174.55 177.631C173.847 177.631 173.183 177.506 172.558 177.256C171.949 177.021 171.418 176.678 170.964 176.225C170.511 175.787 170.152 175.271 169.886 174.678C169.621 174.068 169.488 173.396 169.488 172.662C169.488 172.084 169.574 171.6 169.746 171.209C169.918 170.803 170.144 170.475 170.425 170.225C170.707 169.975 171.027 169.795 171.386 169.686C171.746 169.576 172.113 169.521 172.488 169.521C172.879 169.521 173.254 169.584 173.613 169.709C173.988 169.818 174.316 169.998 174.597 170.248C174.879 170.498 175.097 170.818 175.254 171.209C175.425 171.6 175.511 172.061 175.511 172.592C175.511 172.967 175.425 173.303 175.254 173.6C175.097 173.881 174.894 174.123 174.644 174.326C174.394 174.514 174.121 174.654 173.824 174.748C173.543 174.842 173.277 174.881 173.027 174.865C172.777 174.85 172.55 174.787 172.347 174.678C172.144 174.568 171.964 174.436 171.808 174.279C171.668 174.123 171.558 173.959 171.48 173.787C171.402 173.6 171.363 173.42 171.363 173.248C171.379 173.092 171.41 172.92 171.457 172.732C171.519 172.545 171.613 172.373 171.738 172.217C171.863 172.045 172.019 171.912 172.207 171.818C172.394 171.709 172.621 171.654 172.886 171.654C173.136 171.654 173.339 171.732 173.496 171.889C173.652 172.029 173.738 172.209 173.754 172.428C173.785 172.615 173.738 172.779 173.613 172.92C173.504 173.045 173.363 173.107 173.191 173.107ZM180.175 176.342C180.519 176.139 180.816 175.959 181.066 175.803C181.316 175.662 181.527 175.459 181.699 175.193C181.886 174.912 182.035 174.529 182.144 174.045C182.254 173.561 182.347 172.896 182.425 172.053C182.597 170.35 182.722 168.748 182.8 167.248C182.894 165.732 182.894 164.193 182.8 162.631C182.754 161.975 182.652 161.436 182.496 161.014C182.339 160.592 182.16 160.264 181.957 160.029C181.769 159.779 181.582 159.6 181.394 159.49C181.207 159.365 181.058 159.264 180.949 159.186L180.996 158.693C181.246 158.756 181.558 158.834 181.933 158.928C182.324 159.006 182.761 159.076 183.246 159.139C183.73 159.186 184.261 159.201 184.839 159.186C185.418 159.17 186.027 159.1 186.668 158.975L186.691 159.396C186.597 159.443 186.449 159.568 186.246 159.771C186.043 159.975 185.832 160.264 185.613 160.639C185.41 161.014 185.214 161.498 185.027 162.092C184.855 162.67 184.738 163.365 184.675 164.178C184.613 164.693 184.566 165.217 184.535 165.748C184.519 166.264 184.504 166.779 184.488 167.295C184.879 167.311 185.332 167.326 185.847 167.342C186.363 167.342 186.91 167.334 187.488 167.318C188.066 167.287 188.652 167.24 189.246 167.178C189.855 167.115 190.441 167.014 191.004 166.873C190.988 165.889 190.972 164.975 190.957 164.131C190.941 163.271 190.925 162.615 190.91 162.162C190.894 161.756 190.832 161.35 190.722 160.943C190.613 160.521 190.472 160.131 190.3 159.771C190.129 159.412 189.918 159.092 189.668 158.811C189.418 158.514 189.144 158.295 188.847 158.154L188.894 157.709C189.129 157.787 189.504 157.873 190.019 157.967C190.55 158.045 191.129 158.115 191.754 158.178C192.394 158.225 193.035 158.24 193.675 158.225C194.332 158.209 194.918 158.131 195.433 157.99L195.386 158.529C195.136 158.639 194.879 158.771 194.613 158.928C194.347 159.068 194.105 159.271 193.886 159.537C193.668 159.787 193.472 160.107 193.3 160.498C193.144 160.889 193.043 161.381 192.996 161.975C192.949 162.584 192.902 163.357 192.855 164.295C192.808 165.232 192.777 166.225 192.761 167.271C192.761 168.303 192.793 169.326 192.855 170.342C192.918 171.357 193.035 172.248 193.207 173.014C193.316 173.514 193.441 173.928 193.582 174.256C193.722 174.568 193.886 174.834 194.074 175.053C194.261 175.256 194.472 175.428 194.707 175.568C194.941 175.693 195.199 175.811 195.48 175.92L195.269 176.271C194.832 176.131 194.347 176.014 193.816 175.92C193.3 175.826 192.777 175.764 192.246 175.732C191.714 175.686 191.207 175.678 190.722 175.709C190.238 175.725 189.816 175.764 189.457 175.826L189.386 175.264C189.668 175.17 189.91 175.068 190.113 174.959C190.332 174.85 190.511 174.686 190.652 174.467C190.793 174.232 190.894 173.912 190.957 173.506C191.019 173.1 191.05 172.545 191.05 171.842C191.035 171.404 191.027 170.92 191.027 170.389C191.027 169.857 191.027 169.295 191.027 168.701C190.574 168.654 190.066 168.623 189.504 168.607C188.941 168.576 188.363 168.561 187.769 168.561C187.191 168.561 186.613 168.584 186.035 168.631C185.472 168.662 184.957 168.717 184.488 168.795C184.504 169.67 184.535 170.498 184.582 171.279C184.629 172.061 184.707 172.779 184.816 173.436C184.879 173.889 184.957 174.256 185.05 174.537C185.16 174.803 185.277 175.021 185.402 175.193C185.543 175.35 185.699 175.482 185.871 175.592C186.058 175.686 186.269 175.787 186.504 175.896L186.363 176.365C186.035 176.287 185.605 176.232 185.074 176.201C184.543 176.186 183.988 176.186 183.41 176.201C182.832 176.232 182.277 176.287 181.746 176.365C181.214 176.443 180.785 176.553 180.457 176.693L180.175 176.342ZM202.16 177.209C201.504 177.209 200.793 177.014 200.027 176.623C199.261 176.232 198.55 175.639 197.894 174.842C197.254 174.029 196.722 172.998 196.3 171.748C195.879 170.498 195.683 169.014 195.714 167.295C195.746 165.717 196.004 164.373 196.488 163.264C196.988 162.139 197.597 161.225 198.316 160.521C199.035 159.818 199.793 159.303 200.589 158.975C201.402 158.646 202.136 158.482 202.793 158.482C203.621 158.482 204.41 158.662 205.16 159.021C205.925 159.381 206.605 159.912 207.199 160.615C207.793 161.303 208.269 162.162 208.629 163.193C209.004 164.209 209.214 165.381 209.261 166.709C209.308 168.178 209.129 169.561 208.722 170.857C208.316 172.139 207.769 173.256 207.082 174.209C206.41 175.146 205.636 175.881 204.761 176.412C203.886 176.959 203.019 177.225 202.16 177.209ZM197.683 167.576C197.668 168.045 197.675 168.568 197.707 169.146C197.738 169.709 197.808 170.287 197.918 170.881C198.027 171.475 198.175 172.061 198.363 172.639C198.566 173.201 198.816 173.709 199.113 174.162C199.41 174.615 199.761 174.99 200.168 175.287C200.574 175.584 201.05 175.748 201.597 175.779C202.129 175.811 202.644 175.686 203.144 175.404C203.644 175.123 204.105 174.732 204.527 174.232C204.964 173.732 205.355 173.146 205.699 172.475C206.043 171.803 206.332 171.107 206.566 170.389C206.8 169.654 206.972 168.928 207.082 168.209C207.191 167.475 207.23 166.787 207.199 166.146C207.152 165.553 207.097 165.045 207.035 164.623C206.972 164.186 206.886 163.811 206.777 163.498C206.777 163.779 206.746 164.068 206.683 164.365C206.636 164.646 206.543 164.928 206.402 165.209C206.261 165.49 206.066 165.756 205.816 166.006C205.582 166.256 205.277 166.467 204.902 166.639C204.339 166.904 203.808 167.053 203.308 167.084C202.808 167.1 202.363 167.021 201.972 166.85C201.582 166.678 201.254 166.412 200.988 166.053C200.738 165.678 200.582 165.225 200.519 164.693C200.441 164.162 200.48 163.693 200.636 163.287C200.808 162.865 201.035 162.514 201.316 162.232C201.597 161.936 201.918 161.709 202.277 161.553C202.636 161.396 202.988 161.303 203.332 161.271C203.441 161.271 203.589 161.287 203.777 161.318C203.964 161.334 204.152 161.396 204.339 161.506C204.527 161.6 204.691 161.756 204.832 161.975C204.972 162.193 205.05 162.49 205.066 162.865C205.082 163.256 204.996 163.592 204.808 163.873C204.636 164.139 204.418 164.35 204.152 164.506C203.902 164.662 203.636 164.756 203.355 164.787C203.089 164.803 202.863 164.764 202.675 164.67C202.504 164.561 202.402 164.428 202.371 164.271C202.339 164.1 202.355 163.943 202.418 163.803C202.48 163.646 202.574 163.521 202.699 163.428C202.839 163.334 202.988 163.303 203.144 163.334C203.379 163.396 203.519 163.529 203.566 163.732C203.629 163.92 203.636 164.1 203.589 164.271C203.902 164.193 204.129 164.029 204.269 163.779C204.425 163.529 204.496 163.271 204.48 163.006C204.48 162.74 204.394 162.506 204.222 162.303C204.066 162.084 203.824 161.975 203.496 161.975C202.902 161.975 202.386 162.17 201.949 162.561C201.511 162.936 201.285 163.482 201.269 164.201C201.269 164.436 201.293 164.686 201.339 164.951C201.386 165.217 201.48 165.459 201.621 165.678C201.777 165.896 201.988 166.076 202.254 166.217C202.519 166.342 202.879 166.389 203.332 166.357C203.769 166.326 204.152 166.217 204.48 166.029C204.824 165.826 205.105 165.584 205.324 165.303C205.558 165.006 205.738 164.678 205.863 164.318C205.988 163.959 206.05 163.592 206.05 163.217C206.066 162.545 205.988 161.99 205.816 161.553C205.644 161.1 205.418 160.74 205.136 160.475C204.871 160.193 204.566 159.998 204.222 159.889C203.894 159.779 203.574 159.717 203.261 159.701C202.574 159.686 201.91 159.92 201.269 160.404C200.629 160.873 200.05 161.482 199.535 162.232C199.019 162.982 198.589 163.834 198.246 164.787C197.918 165.725 197.73 166.654 197.683 167.576ZM211.98 162.467C211.871 161.795 211.738 161.225 211.582 160.756C211.425 160.287 211.23 159.896 210.996 159.584C210.761 159.256 210.488 158.998 210.175 158.811C209.847 158.607 209.464 158.459 209.027 158.365L209.121 157.779C209.355 157.873 209.644 157.99 209.988 158.131C210.332 158.256 210.722 158.373 211.16 158.482C211.613 158.576 212.105 158.639 212.636 158.67C213.183 158.686 213.777 158.623 214.418 158.482C214.355 158.889 214.293 159.381 214.23 159.959C214.183 160.537 214.144 161.1 214.113 161.646C214.363 161.131 214.66 160.623 215.004 160.123C215.363 159.607 215.769 159.162 216.222 158.787C216.691 158.396 217.207 158.107 217.769 157.92C218.347 157.732 218.98 157.693 219.668 157.803C220.199 157.896 220.683 158.139 221.121 158.529C221.558 158.904 221.925 159.396 222.222 160.006C222.519 160.6 222.73 161.287 222.855 162.068C222.98 162.85 223.004 163.67 222.925 164.529C222.832 165.404 222.668 166.232 222.433 167.014C222.199 167.795 221.879 168.475 221.472 169.053C221.082 169.615 220.597 170.061 220.019 170.389C219.457 170.701 218.8 170.818 218.05 170.74C217.55 170.693 217.082 170.576 216.644 170.389C216.222 170.186 215.832 169.936 215.472 169.639C215.113 169.326 214.793 168.975 214.511 168.584C214.23 168.193 213.988 167.787 213.785 167.365C213.785 167.771 213.793 168.232 213.808 168.748C213.824 169.248 213.847 169.764 213.879 170.295C213.91 170.811 213.949 171.334 213.996 171.865C214.043 172.381 214.097 172.857 214.16 173.295C214.238 173.826 214.355 174.248 214.511 174.561C214.668 174.857 214.839 175.092 215.027 175.264C215.214 175.42 215.402 175.529 215.589 175.592C215.777 175.654 215.941 175.709 216.082 175.756L215.988 176.201C215.472 176.092 214.941 176.021 214.394 175.99C213.863 175.959 213.347 175.951 212.847 175.967C212.363 175.998 211.91 176.053 211.488 176.131C211.082 176.209 210.754 176.303 210.504 176.412L210.48 175.756C210.683 175.584 210.871 175.428 211.043 175.287C211.214 175.131 211.363 174.912 211.488 174.631C211.629 174.35 211.738 173.975 211.816 173.506C211.91 173.021 211.972 172.373 212.004 171.561C212.066 169.936 212.129 168.35 212.191 166.803C212.254 165.24 212.183 163.795 211.98 162.467ZM213.972 164.412C213.941 164.85 213.996 165.342 214.136 165.889C214.293 166.42 214.519 166.936 214.816 167.436C215.129 167.92 215.504 168.342 215.941 168.701C216.394 169.061 216.902 169.264 217.464 169.311C217.949 169.357 218.371 169.279 218.73 169.076C219.089 168.873 219.394 168.6 219.644 168.256C219.91 167.912 220.129 167.521 220.3 167.084C220.472 166.646 220.605 166.209 220.699 165.771C220.793 165.318 220.855 164.896 220.886 164.506C220.933 164.1 220.964 163.764 220.98 163.498C220.98 163.061 220.933 162.6 220.839 162.115C220.746 161.615 220.589 161.154 220.371 160.732C220.168 160.311 219.902 159.959 219.574 159.678C219.261 159.396 218.894 159.24 218.472 159.209C217.91 159.193 217.363 159.357 216.832 159.701C216.316 160.029 215.855 160.451 215.449 160.967C215.043 161.482 214.707 162.053 214.441 162.678C214.175 163.287 214.019 163.865 213.972 164.412Z" fill="#0C0C0C"/>
</g>
<path d="M134.633 139.752C134.097 140.25 133.544 140.671 132.974 141.014C132.411 141.333 131.871 141.532 131.357 141.611C130.823 141.686 130.336 141.613 129.896 141.394C129.436 141.17 129.048 140.759 128.733 140.161C128.437 139.608 128.302 139.05 128.329 138.487C128.342 137.934 128.456 137.433 128.67 136.985C128.885 136.537 129.177 136.148 129.547 135.82C129.898 135.486 130.266 135.269 130.652 135.17C131.043 135.046 131.427 135.058 131.802 135.208C132.171 135.342 132.473 135.639 132.71 136.097C133.052 136.755 133.148 137.343 132.999 137.861C132.85 138.379 132.58 138.8 132.191 139.123C131.801 139.447 131.42 139.614 131.046 139.624C130.66 139.643 130.348 139.424 130.112 138.966C129.993 138.736 129.93 138.515 129.921 138.301C129.893 138.081 129.901 137.885 129.944 137.71C129.968 137.531 130.027 137.374 130.123 137.24C130.211 137.09 130.307 136.976 130.409 136.896C130.62 136.712 130.818 136.637 131.006 136.672C131.199 136.682 131.365 136.804 131.502 137.038C131.621 137.268 131.639 137.484 131.557 137.689C131.469 137.878 131.326 138 131.126 138.054C130.992 138.099 130.882 138.044 130.796 137.89C130.698 137.745 130.651 137.581 130.656 137.397C130.554 137.516 130.488 137.658 130.457 137.823C130.427 137.987 130.458 138.174 130.55 138.383C130.669 138.652 130.835 138.834 131.049 138.929C131.256 139.008 131.531 138.894 131.876 138.585C132.055 138.446 132.172 138.284 132.228 138.1C132.297 137.906 132.334 137.716 132.338 137.532C132.343 137.348 132.322 137.183 132.275 137.039C132.235 136.869 132.195 136.74 132.155 136.65C132.116 136.56 132.037 136.441 131.92 136.291C131.815 136.132 131.669 136.015 131.481 135.94C131.3 135.84 131.077 135.803 130.813 135.828C130.562 135.842 130.264 135.964 129.918 136.193C129.567 136.447 129.315 136.734 129.164 137.052C129.006 137.356 128.913 137.67 128.884 137.994C128.855 138.317 128.871 138.626 128.932 138.92C128.993 139.214 129.073 139.453 129.172 139.638C129.356 140.016 129.613 140.288 129.944 140.453C130.261 140.627 130.651 140.675 131.114 140.595C131.558 140.511 132.065 140.297 132.634 139.953C133.217 139.6 133.843 139.092 134.512 138.43C134.453 137.712 134.378 136.977 134.286 136.225C134.195 135.473 134.094 134.738 133.983 134.021C133.872 133.303 133.749 132.616 133.614 131.958C133.478 131.301 133.33 130.713 133.17 130.194C132.783 128.969 132.295 128.154 131.705 127.75C131.107 127.332 130.502 127.341 129.888 127.779L129.708 127.137C129.957 127.002 130.306 126.801 130.754 126.532C131.215 126.253 131.711 125.937 132.242 125.584C132.767 125.215 133.284 124.832 133.796 124.434C134.3 124.02 134.734 123.602 135.097 123.179L135.274 123.523C135.134 123.712 135.008 123.891 134.893 124.06C134.779 124.23 134.7 124.402 134.657 124.576C134.607 124.735 134.599 124.912 134.634 125.106C134.661 125.286 134.754 125.475 134.91 125.674C135.074 125.889 135.371 126.31 135.803 126.938C136.235 127.566 136.748 128.301 137.343 129.143C137.938 129.985 138.592 130.882 139.304 131.834C140.016 132.785 140.728 133.677 141.438 134.51C142.149 135.342 142.807 136.055 143.413 136.648C144.031 137.231 144.586 137.672 145.079 137.971C145.565 138.255 145.988 138.377 146.349 138.338C146.716 138.313 147.016 138.099 147.25 137.695C147.357 137.471 147.429 137.225 147.465 136.956C147.494 136.712 147.492 136.433 147.456 136.119C147.421 135.805 147.323 135.449 147.165 135.05L147.422 134.759C147.579 134.958 147.727 135.255 147.867 135.648C147.999 136.027 148.088 136.44 148.131 136.889C148.174 137.337 148.14 137.786 148.029 138.234C147.924 138.697 147.703 139.091 147.365 139.414C147.091 139.688 146.752 139.932 146.348 140.146C145.958 140.35 145.498 140.417 144.969 140.347C144.452 140.267 143.857 139.988 143.182 139.509C142.52 139.021 141.78 138.221 140.963 137.11C140.734 136.786 140.509 136.47 140.286 136.161C140.058 135.837 139.835 135.528 139.62 135.234C139.262 135.552 138.774 135.983 138.155 136.526C137.536 137.068 136.894 137.639 136.23 138.236C136.454 139.327 136.677 140.279 136.898 141.091C137.032 141.589 137.162 141.98 137.287 142.264C137.425 142.538 137.566 142.74 137.709 142.87C137.846 142.984 138.007 143.039 138.194 143.034C138.394 143.019 138.628 142.967 138.898 142.878L139.086 143.363C138.843 143.473 138.494 143.694 138.04 144.028C137.586 144.361 137.11 144.742 136.612 145.171C136.134 145.604 135.665 146.059 135.206 146.537C134.767 147.02 134.446 147.461 134.244 147.86L133.754 147.217C133.963 146.873 134.154 146.604 134.325 146.41C134.478 146.211 134.605 146.012 134.706 145.812C134.8 145.598 134.868 145.344 134.91 145.05C134.946 144.741 134.945 144.33 134.907 143.817C134.89 143.429 134.855 142.883 134.803 142.181C134.763 141.468 134.713 140.654 134.652 139.737L134.633 139.752ZM134.233 127.408C134.342 127.966 134.458 128.618 134.582 129.366C134.706 130.113 134.843 130.91 134.993 131.757C135.137 132.589 135.288 133.456 135.446 134.358C135.616 135.249 135.786 136.121 135.956 136.973C136.511 136.4 137.037 135.88 137.534 135.412C138.045 134.934 138.491 134.526 138.874 134.187C137.868 132.802 136.972 131.551 136.187 130.435C135.403 129.319 134.751 128.31 134.233 127.408Z" fill="black"/>
<path d="M145.49 136.325C145.813 135.279 146.064 134.342 146.243 133.512C146.43 132.659 146.6 131.806 146.755 130.954C146.909 130.102 147.085 129.191 147.284 128.219C147.477 127.233 147.746 126.071 148.091 124.734C148.605 122.741 148.994 121.081 149.26 119.755C149.539 118.421 149.719 117.368 149.8 116.596C148.677 117.08 147.687 117.586 146.829 118.116C145.985 118.637 145.294 119.271 144.756 120.018C144.232 120.757 143.883 121.65 143.71 122.699C143.532 123.732 143.564 125.002 143.806 126.508L143.11 126.895C143.069 126.567 142.99 126.095 142.872 125.479C142.754 124.863 142.6 124.213 142.41 123.529C142.229 122.821 142.022 122.138 141.79 121.479C141.572 120.811 141.346 120.269 141.11 119.853C141.972 119.488 142.864 119.087 143.785 118.649C144.707 118.212 145.608 117.74 146.49 117.233C147.381 116.702 148.227 116.133 149.027 115.527C149.84 114.913 150.575 114.234 151.231 113.491C151.308 113.779 151.388 114 151.472 114.154C151.555 114.308 151.626 114.424 151.685 114.5C151.762 114.584 151.829 114.637 151.886 114.658C151.079 117.79 150.263 121.123 149.438 124.656C148.626 128.18 147.916 131.913 147.307 135.854C147.9 135.482 148.496 135.118 149.095 134.761C149.694 134.405 150.264 134.037 150.805 133.659C151.342 133.265 151.827 132.865 152.26 132.459C152.687 132.038 153.03 131.583 153.286 131.097C153.62 130.49 153.826 129.82 153.903 129.088C153.989 128.333 153.987 127.462 153.898 126.477L154.365 126.226C154.48 127.289 154.61 128.25 154.757 129.108C154.904 129.966 155.039 130.711 155.162 131.342C155.316 132.066 155.472 132.724 155.632 133.315C154.833 133.568 154.033 133.841 153.23 134.134C152.428 134.426 151.641 134.766 150.869 135.151C150.096 135.537 149.347 135.993 148.621 136.518C147.908 137.035 147.224 137.638 146.567 138.326C146.383 137.916 146.225 137.584 146.092 137.329C145.954 137.059 145.843 136.847 145.759 136.693C145.657 136.531 145.567 136.409 145.49 136.325Z" fill="black"/>
<path d="M156.453 129.507C156.88 128.517 157.222 127.624 157.481 126.828C157.751 126.011 158.005 125.192 158.242 124.371C158.478 123.55 158.743 122.674 159.036 121.742C159.325 120.793 159.708 119.682 160.184 118.407C160.892 116.506 161.443 114.919 161.837 113.644C162.247 112.364 162.529 111.349 162.683 110.599C161.503 110.938 160.453 111.317 159.535 111.734C158.632 112.145 157.874 112.686 157.259 113.356C156.659 114.02 156.222 114.858 155.948 115.87C155.669 116.866 155.581 118.12 155.683 119.633L154.942 119.93C154.932 119.602 154.897 119.127 154.836 118.506C154.775 117.886 154.681 117.227 154.554 116.53C154.438 115.81 154.294 115.112 154.122 114.434C153.965 113.75 153.787 113.189 153.589 112.751C154.495 112.496 155.434 112.209 156.408 111.89C157.381 111.571 158.337 111.215 159.277 110.823C160.228 110.409 161.137 109.952 162.003 109.452C162.884 108.945 163.692 108.366 164.425 107.714C164.476 108.007 164.536 108.234 164.606 108.396C164.676 108.558 164.736 108.68 164.788 108.763C164.858 108.855 164.921 108.915 164.977 108.943C163.864 111.93 162.722 115.114 161.552 118.493C160.397 121.866 159.324 125.456 158.335 129.265C158.97 128.97 159.607 128.684 160.246 128.405C160.885 128.127 161.497 127.834 162.08 127.527C162.66 127.205 163.188 126.87 163.664 126.522C164.137 126.159 164.526 125.753 164.832 125.305C165.227 124.748 165.499 124.113 165.646 123.402C165.804 122.668 165.886 121.81 165.889 120.828L166.385 120.639C166.4 121.7 166.441 122.662 166.508 123.525C166.575 124.388 166.641 125.138 166.705 125.774C166.792 126.507 166.887 127.174 166.993 127.775C166.161 127.927 165.326 128.099 164.487 128.29C163.648 128.48 162.82 128.719 162.002 129.005C161.185 129.291 160.385 129.649 159.6 130.078C158.831 130.501 158.081 131.011 157.352 131.609C157.205 131.183 157.077 130.836 156.966 130.57C156.852 130.287 156.761 130.064 156.691 129.902C156.602 129.731 156.523 129.599 156.453 129.507Z" fill="black"/>
<path d="M167.918 113.702C167.83 112.687 167.709 111.907 167.555 111.363C167.414 110.799 167.245 110.385 167.047 110.121C166.863 109.837 166.661 109.658 166.44 109.586C166.233 109.492 166.01 109.403 165.772 109.319L165.764 108.717C166.052 108.687 166.394 108.643 166.792 108.583C167.189 108.522 167.63 108.425 168.115 108.29C168.613 108.135 169.146 107.937 169.713 107.696C170.281 107.454 170.887 107.135 171.531 106.738L171.559 107.309C171.304 107.463 171.064 107.672 170.84 107.936C170.614 108.183 170.415 108.515 170.244 108.931C170.073 109.348 169.933 109.873 169.824 110.507C169.728 111.12 169.684 111.878 169.692 112.782C169.698 113.669 169.734 114.539 169.8 115.392C169.866 116.246 170.022 116.982 170.268 117.601C170.529 118.216 170.896 118.659 171.371 118.93C171.845 119.2 172.492 119.188 173.312 118.893C174.134 118.615 174.795 118.104 175.295 117.362C175.811 116.615 176.186 115.782 176.419 114.862C176.665 113.921 176.795 112.955 176.807 111.962C176.819 110.97 176.741 110.086 176.572 109.311C176.425 108.581 176.268 107.954 176.1 107.431C175.948 106.903 175.768 106.467 175.559 106.122C175.366 105.773 175.136 105.51 174.869 105.333C174.618 105.151 174.319 105.041 173.973 105.003L174.139 104.429C174.483 104.451 174.888 104.448 175.354 104.419C175.836 104.385 176.314 104.32 176.787 104.222C177.274 104.103 177.732 103.951 178.161 103.765C178.588 103.562 178.927 103.309 179.178 103.004L179.297 103.525C179.07 103.772 178.854 104.092 178.647 104.485C178.439 104.861 178.275 105.334 178.157 105.904C178.037 106.457 177.964 107.122 177.939 107.901C177.928 108.658 178.005 109.534 178.171 110.527C178.282 111.234 178.429 111.906 178.612 112.542C178.793 113.163 178.978 113.815 179.168 114.501C179.373 115.181 179.563 115.933 179.739 116.756C179.928 117.559 180.093 118.485 180.234 119.536C180.376 120.587 180.446 121.649 180.444 122.722C180.443 123.795 180.311 124.805 180.049 125.749C179.787 126.694 179.346 127.52 178.728 128.229C178.125 128.932 177.285 129.434 176.206 129.734C175.44 129.947 174.782 130.003 174.234 129.904C173.688 129.821 173.216 129.634 172.82 129.341C172.426 129.065 172.104 128.719 171.853 128.302C171.62 127.897 171.428 127.49 171.275 127.08C171.147 126.729 171.027 126.377 170.914 126.023C170.817 125.664 170.697 125.312 170.553 124.966C170.411 124.637 170.247 124.322 170.061 124.022C169.875 123.721 169.637 123.46 169.347 123.239C170.088 123.201 170.775 123.119 171.407 122.994C172.039 122.869 172.569 122.654 172.999 122.351C172.706 123.069 172.563 123.813 172.569 124.582C172.575 125.352 172.697 126.073 172.933 126.745C173.059 127.079 173.234 127.416 173.458 127.756C173.698 128.092 173.978 128.366 174.299 128.579C174.622 128.807 174.987 128.932 175.395 128.953C175.819 128.969 176.271 128.835 176.752 128.551C177.202 128.275 177.591 127.857 177.921 127.296C178.251 126.735 178.502 126.07 178.675 125.301C178.849 124.548 178.939 123.71 178.945 122.786C178.95 121.863 178.845 120.903 178.63 119.906C178.368 118.805 178.137 117.872 177.937 117.106C177.737 116.34 177.575 115.681 177.452 115.128C177.334 115.58 177.166 116.079 176.948 116.626C176.745 117.169 176.476 117.696 176.139 118.209C175.801 118.705 175.392 119.163 174.913 119.581C174.432 119.982 173.863 120.275 173.206 120.457C173.065 120.496 172.877 120.54 172.64 120.589C172.419 120.634 172.171 120.661 171.897 120.67C171.622 120.679 171.328 120.66 171.013 120.613C170.697 120.55 170.374 120.439 170.044 120.279C169.766 120.138 169.531 119.961 169.34 119.745C169.164 119.526 169.011 119.292 168.88 119.043C168.763 118.774 168.661 118.5 168.575 118.222C168.505 117.94 168.443 117.664 168.391 117.393C168.29 116.885 168.198 116.324 168.115 115.709C168.048 115.091 167.983 114.422 167.918 113.702Z" fill="black"/>
<path d="M189.149 110.383C188.661 110.39 188.264 110.307 187.959 110.133C187.638 109.942 187.391 109.718 187.218 109.461C187.044 109.203 186.92 108.928 186.845 108.636C186.77 108.345 186.734 108.093 186.739 107.881C186.735 107.295 186.911 106.658 187.266 105.969C187.606 105.263 188.164 104.604 188.941 103.989C189.718 103.359 190.721 102.83 191.949 102.404C193.193 101.978 194.701 101.751 196.473 101.723C196.928 101.716 197.512 101.772 198.225 101.891C198.937 102.01 199.631 102.235 200.307 102.567C200.983 102.898 201.558 103.369 202.033 103.98C202.508 104.575 202.727 105.345 202.691 106.289C202.678 106.924 202.56 107.504 202.338 108.028C202.116 108.536 201.822 108.989 201.456 109.385C201.107 109.781 200.685 110.113 200.192 110.381C199.699 110.633 199.175 110.82 198.62 110.943C199.156 110.983 199.706 111.105 200.27 111.308C200.835 111.494 201.349 111.771 201.813 112.138C202.293 112.505 202.682 112.955 202.979 113.487C203.277 114.02 203.426 114.652 203.427 115.385C203.422 116.41 203.158 117.367 202.636 118.254C202.13 119.124 201.36 119.828 200.324 120.365C199.305 120.902 198.031 121.239 196.5 121.377C194.986 121.514 193.21 121.355 191.171 120.899C191.34 120.603 191.484 120.324 191.603 120.062C191.739 119.799 191.85 119.529 191.937 119.251C192.025 118.956 192.096 118.646 192.152 118.32C192.224 117.993 192.288 117.626 192.345 117.218C192.384 116.941 192.433 116.549 192.492 116.044C192.567 115.538 192.645 114.959 192.723 114.307C192.802 113.654 192.882 112.945 192.963 112.179C193.044 111.412 193.109 110.638 193.158 109.856C193.223 109.058 193.264 108.268 193.28 107.486C193.313 106.704 193.321 105.964 193.303 105.264C193.281 104.727 193.266 104.288 193.257 103.946C193.248 103.588 193.23 103.296 193.202 103.068C192.305 103.212 191.504 103.461 190.798 103.814C190.108 104.15 189.523 104.558 189.041 105.037C188.56 105.501 188.2 106.019 187.96 106.593C187.705 107.15 187.595 107.721 187.632 108.307C187.669 108.876 187.912 109.295 188.361 109.565C188.795 109.819 189.305 109.9 189.892 109.81C190.186 109.756 190.44 109.646 190.655 109.48C190.87 109.298 191.045 109.092 191.18 108.862C191.314 108.632 191.401 108.378 191.439 108.101C191.494 107.823 191.499 107.555 191.456 107.295C191.413 107.035 191.319 106.841 191.176 106.713C191.032 106.585 190.871 106.506 190.693 106.477C190.515 106.431 190.337 106.425 190.157 106.461C189.961 106.496 189.798 106.556 189.666 106.639C189.567 106.706 189.475 106.805 189.391 106.936C189.308 107.052 189.248 107.183 189.213 107.33C189.177 107.477 189.182 107.631 189.227 107.794C189.273 107.939 189.384 108.06 189.561 108.155C189.581 107.959 189.658 107.795 189.791 107.663C189.924 107.514 190.087 107.471 190.281 107.533C190.394 107.58 190.473 107.668 190.519 107.798C190.566 107.911 190.571 108.041 190.535 108.188C190.5 108.319 190.424 108.442 190.308 108.558C190.192 108.674 190.028 108.741 189.816 108.761C189.67 108.779 189.516 108.766 189.354 108.719C189.193 108.673 189.048 108.594 188.92 108.482C188.776 108.37 188.666 108.225 188.588 108.048C188.495 107.854 188.459 107.618 188.481 107.341C188.502 107.097 188.58 106.876 188.714 106.678C188.848 106.481 189.014 106.316 189.212 106.182C189.41 106.049 189.632 105.948 189.877 105.879C190.122 105.81 190.366 105.782 190.61 105.794C191.682 105.826 192.213 106.469 192.203 107.723C192.196 108.032 192.125 108.342 191.988 108.654C191.868 108.965 191.675 109.253 191.41 109.517C191.144 109.766 190.823 109.974 190.446 110.143C190.069 110.295 189.636 110.375 189.149 110.383ZM195.327 102.888C195.284 103.41 195.206 103.997 195.095 104.65C195.001 105.286 194.905 105.963 194.809 106.681C194.713 107.399 194.624 108.141 194.543 108.907C194.478 109.657 194.455 110.406 194.471 111.154C195.185 111.241 195.894 111.14 196.599 110.852C197.32 110.564 197.97 110.155 198.55 109.626C199.13 109.096 199.598 108.486 199.954 107.797C200.326 107.091 200.52 106.372 200.535 105.639C200.547 105.069 200.379 104.576 200.03 104.158C199.681 103.74 199.241 103.413 198.71 103.177C198.178 102.942 197.604 102.796 196.988 102.74C196.388 102.685 195.834 102.734 195.327 102.888ZM194.472 112.302C194.477 112.806 194.466 113.368 194.436 113.987C194.407 114.606 194.361 115.241 194.299 115.893C194.253 116.545 194.198 117.205 194.136 117.874C194.073 118.526 194.012 119.145 193.95 119.732C194.596 119.95 195.318 120.028 196.115 119.967C196.913 119.906 197.657 119.707 198.346 119.37C199.052 119.018 199.64 118.52 200.108 117.878C200.577 117.236 200.805 116.435 200.792 115.475C200.773 114.84 200.654 114.313 200.436 113.893C200.217 113.473 199.923 113.136 199.555 112.882C199.203 112.61 198.801 112.413 198.348 112.29C197.912 112.167 197.458 112.092 196.988 112.067C196.517 112.042 196.061 112.057 195.621 112.113C195.182 112.152 194.799 112.215 194.472 112.302Z" fill="black"/>
<path d="M206.581 115.399C205.864 115.362 205.172 115.255 204.504 115.077C203.854 114.885 203.286 114.623 202.8 114.29C202.299 113.939 201.914 113.514 201.643 113.015C201.358 112.498 201.23 111.896 201.259 111.21C201.283 110.573 201.448 110.055 201.756 109.655C202.047 109.253 202.399 108.967 202.812 108.796C203.225 108.625 203.675 108.558 204.162 108.595C204.635 108.613 205.064 108.732 205.448 108.952C205.851 109.157 206.177 109.459 206.426 109.856C206.678 110.237 206.79 110.689 206.763 111.211C206.727 111.961 206.513 112.473 206.121 112.745C205.73 113.018 205.284 113.126 204.782 113.071C204.281 113.016 203.865 112.849 203.537 112.572C203.192 112.293 203.033 111.892 203.059 111.37C203.073 111.109 203.13 110.895 203.231 110.729C203.317 110.544 203.423 110.403 203.549 110.306C203.661 110.191 203.792 110.119 203.942 110.092C204.095 110.048 204.235 110.035 204.364 110.053C204.64 110.077 204.85 110.172 204.995 110.341C205.158 110.496 205.239 110.713 205.24 110.992C205.227 111.253 205.133 111.429 204.959 111.519C204.787 111.593 204.6 111.574 204.4 111.463C204.261 111.394 204.193 111.269 204.197 111.089C204.185 110.907 204.228 110.749 204.325 110.615C204.176 110.626 204.047 110.682 203.937 110.781C203.828 110.88 203.76 111.043 203.734 111.269C203.701 111.56 203.753 111.823 203.89 112.056C204.029 112.273 204.326 112.398 204.781 112.43C205.007 112.462 205.191 112.431 205.333 112.337C205.491 112.244 205.618 112.131 205.715 111.997C205.813 111.863 205.877 111.724 205.91 111.581C205.961 111.424 205.992 111.297 206.003 111.2C206.014 111.103 206.006 110.954 205.98 110.753C205.97 110.555 205.902 110.356 205.778 110.157C205.671 109.945 205.497 109.747 205.255 109.565C205.03 109.385 204.71 109.249 204.295 109.156C203.861 109.078 203.498 109.1 203.206 109.222C202.915 109.328 202.676 109.491 202.487 109.71C202.298 109.93 202.156 110.172 202.06 110.438C201.964 110.704 201.912 110.943 201.904 111.155C201.872 111.578 201.958 111.976 202.161 112.35C202.348 112.722 202.662 113.055 203.104 113.348C203.531 113.623 204.079 113.849 204.747 114.027C205.431 114.207 206.23 114.305 207.146 114.322C207.458 113.742 207.764 113.137 208.065 112.506C208.367 111.876 208.651 111.251 208.918 110.632C209.185 110.013 209.426 109.407 209.641 108.813C209.856 108.22 210.026 107.669 210.149 107.161C210.434 105.953 210.423 104.974 210.116 104.223C209.81 103.456 209.28 103.002 208.526 102.861L208.695 102.245C208.979 102.335 209.384 102.45 209.908 102.591C210.449 102.734 211.039 102.877 211.678 103.017C212.319 103.142 212.962 103.251 213.607 103.343C214.253 103.419 214.841 103.438 215.37 103.399L215.35 103.79C215.133 103.825 214.932 103.862 214.747 103.901C214.563 103.94 214.408 104.008 214.282 104.105C214.158 104.186 214.062 104.312 213.993 104.483C213.926 104.638 213.91 104.849 213.945 105.117C213.978 105.401 214.023 105.941 214.08 106.738C214.136 107.535 214.21 108.474 214.299 109.555C214.389 110.636 214.502 111.802 214.638 113.054C214.773 114.306 214.939 115.512 215.134 116.674C215.329 117.836 215.539 118.868 215.764 119.771C216.005 120.677 216.263 121.428 216.539 122.027C216.816 122.609 217.122 123.022 217.454 123.267C217.785 123.528 218.154 123.597 218.561 123.475C218.767 123.389 218.954 123.26 219.121 123.087C219.27 122.927 219.409 122.717 219.537 122.456C219.665 122.195 219.761 121.856 219.825 121.438L220.196 121.417C220.231 121.685 220.209 122.019 220.131 122.418C220.054 122.802 219.922 123.177 219.732 123.544C219.543 123.911 219.287 124.22 218.963 124.469C218.638 124.735 218.247 124.859 217.79 124.843C217.414 124.839 216.997 124.762 216.539 124.615C216.097 124.469 215.664 124.169 215.241 123.714C214.834 123.261 214.459 122.599 214.116 121.729C213.789 120.86 213.552 119.701 213.406 118.25C213.372 117.835 213.336 117.427 213.3 117.027C213.265 116.612 213.229 116.212 213.191 115.829C212.72 115.794 212.079 115.743 211.267 115.676C210.456 115.609 209.611 115.546 208.733 115.486C208.375 116.47 208.087 117.348 207.867 118.122C207.732 118.596 207.646 118.986 207.611 119.293C207.592 119.603 207.612 119.86 207.67 120.066C207.731 120.255 207.843 120.419 208.008 120.558C208.188 120.698 208.418 120.838 208.697 120.977L208.615 121.483C208.348 121.379 207.934 121.278 207.371 121.181C206.809 121.084 206.204 121.006 205.555 120.946C204.921 120.904 204.284 120.887 203.644 120.894C203.019 120.919 202.518 121.003 202.141 121.146L202.042 120.294C202.397 120.197 202.698 120.142 202.945 120.128C203.178 120.096 203.389 120.044 203.578 119.972C203.768 119.884 203.955 119.747 204.141 119.56C204.328 119.357 204.535 119.049 204.762 118.638C204.944 118.336 205.189 117.903 205.499 117.339C205.826 116.778 206.194 116.132 206.605 115.403L206.581 115.399ZM212.481 105.893C212.293 106.392 212.063 106.967 211.793 107.618C211.522 108.269 211.237 108.968 210.939 109.714C210.643 110.444 210.335 111.205 210.016 111.997C209.712 112.792 209.418 113.571 209.135 114.336C209.905 114.331 210.624 114.344 211.293 114.374C211.977 114.406 212.571 114.442 213.074 114.481C212.903 112.682 212.759 111.068 212.644 109.638C212.528 108.208 212.474 106.96 212.481 105.893Z" fill="black"/>
<path d="M215.716 123.174C216.016 123.164 216.298 123.123 216.562 123.051C216.826 122.978 217.067 122.857 217.284 122.686C217.521 122.504 217.73 122.255 217.912 121.938C218.094 121.621 218.253 121.212 218.39 120.712C218.475 120.383 218.589 119.91 218.733 119.294C218.897 118.666 219.067 117.965 219.244 117.19C219.437 116.419 219.63 115.606 219.824 114.751C220.021 113.88 220.205 113.031 220.376 112.203C220.563 111.38 220.723 110.608 220.856 109.887C221.005 109.17 221.113 108.568 221.18 108.081C221.222 107.722 221.199 107.393 221.111 107.096C221.027 106.782 220.892 106.513 220.706 106.287C220.54 106.051 220.34 105.854 220.107 105.699C219.893 105.532 219.687 105.402 219.491 105.309L219.62 104.688C219.862 104.88 220.129 105.071 220.421 105.261C220.732 105.441 221.092 105.626 221.5 105.818C221.908 106.009 222.374 106.202 222.898 106.395C223.437 106.593 224.061 106.782 224.77 106.964C225.241 107.09 225.765 107.241 226.343 107.416C226.923 107.576 227.492 107.791 228.05 108.062C228.61 108.317 229.135 108.628 229.622 108.997C230.129 109.354 230.536 109.79 230.843 110.307C231.151 110.823 231.332 111.429 231.387 112.122C231.462 112.805 231.355 113.601 231.067 114.512C230.714 115.573 230.284 116.407 229.777 117.014C229.289 117.61 228.752 118.04 228.167 118.302C227.601 118.553 227.013 118.67 226.403 118.654C225.811 118.627 225.244 118.522 224.702 118.34C225.362 118.998 225.859 119.758 226.194 120.622C226.529 121.485 226.749 122.466 226.853 123.563C226.922 124.193 226.985 124.771 227.042 125.296C227.114 125.826 227.241 126.296 227.421 126.706C227.598 127.132 227.85 127.479 228.176 127.747C228.498 128.031 228.953 128.237 229.54 128.365L229.301 128.8C229.046 128.672 228.684 128.536 228.216 128.394C227.745 128.268 227.248 128.142 226.727 128.018C226.202 127.909 225.691 127.813 225.194 127.73C224.713 127.651 224.322 127.617 224.022 127.627L223.975 127.131C224.474 127.045 224.847 126.804 225.096 126.405C225.344 126.007 225.439 125.35 225.379 124.435C225.34 123.983 225.293 123.453 225.236 122.844C225.184 122.218 225.088 121.597 224.951 120.98C224.813 120.363 224.611 119.777 224.345 119.222C224.078 118.667 223.722 118.229 223.274 117.907C222.796 117.575 222.371 117.344 222 117.215C221.644 117.09 221.343 117.024 221.096 117.016C220.947 117.733 220.805 118.459 220.669 119.196C220.536 119.918 220.466 120.615 220.459 121.29C220.455 121.949 220.536 122.558 220.703 123.116C220.869 123.674 221.188 124.135 221.66 124.498L221.464 124.845C221.205 124.732 220.837 124.587 220.36 124.408C219.88 124.245 219.364 124.096 218.811 123.962C218.255 123.844 217.694 123.75 217.128 123.68C216.575 123.63 216.094 123.67 215.686 123.8L215.716 123.174ZM223.705 107.782C223.388 108.431 223.087 109.126 222.8 109.868C222.533 110.599 222.281 111.335 222.044 112.075C221.827 112.805 221.64 113.509 221.482 114.189C221.325 114.869 221.211 115.46 221.14 115.963C222.086 116.437 222.959 116.787 223.758 117.013C224.56 117.223 225.284 117.248 225.931 117.089C226.577 116.93 227.143 116.561 227.628 115.981C228.132 115.389 228.551 114.526 228.886 113.393C229.093 112.711 229.153 112.103 229.064 111.569C228.992 111.039 228.823 110.573 228.558 110.171C228.293 109.769 227.957 109.43 227.55 109.154C227.162 108.867 226.738 108.628 226.28 108.438C225.822 108.248 225.364 108.1 224.905 107.995C224.461 107.894 224.061 107.823 223.705 107.782Z" fill="black"/>
<path d="M230.356 116.787C229.914 116.577 229.579 116.32 229.351 116.016C229.113 115.689 228.951 115.363 228.864 115.038C228.778 114.712 228.741 114.392 228.753 114.077C228.764 113.763 228.801 113.504 228.863 113.302C229.019 112.736 229.352 112.2 229.861 111.695C230.36 111.167 231.043 110.78 231.912 110.534C232.785 110.273 233.834 110.211 235.059 110.348C236.298 110.492 237.721 110.946 239.328 111.71C239.741 111.906 240.253 112.22 240.864 112.653C241.475 113.085 242.04 113.612 242.559 114.232C243.079 114.853 243.47 115.564 243.732 116.364C243.998 117.149 243.987 117.989 243.697 118.883C243.511 119.489 243.247 119.995 242.904 120.401C242.565 120.791 242.176 121.096 241.738 121.315C241.314 121.541 240.843 121.673 240.325 121.711C239.812 121.734 239.288 121.681 238.753 121.551C239.225 121.829 239.689 122.191 240.143 122.639C240.602 123.07 240.991 123.566 241.309 124.127C241.642 124.694 241.871 125.301 241.994 125.947C242.118 126.593 242.08 127.269 241.881 127.975C241.597 128.961 241.098 129.764 240.385 130.386C239.691 130.999 238.803 131.334 237.723 131.39C236.657 131.453 235.414 131.209 233.995 130.659C232.59 130.116 231.03 129.171 229.315 127.822C229.548 127.612 229.754 127.408 229.933 127.208C230.127 127.016 230.301 126.805 230.456 126.576C230.615 126.331 230.764 126.064 230.903 125.774C231.057 125.491 231.215 125.166 231.378 124.799C231.488 124.549 231.639 124.193 231.831 123.733C232.037 123.279 232.264 122.756 232.513 122.162C232.762 121.569 233.027 120.921 233.309 120.219C233.592 119.517 233.861 118.8 234.119 118.068C234.395 117.328 234.648 116.585 234.876 115.839C235.118 115.1 235.327 114.39 235.501 113.708C235.628 113.181 235.735 112.751 235.819 112.418C235.909 112.069 235.972 111.779 236.009 111.547C235.161 111.286 234.369 111.168 233.636 111.193C232.921 111.21 232.282 111.342 231.716 111.589C231.156 111.821 230.689 112.16 230.317 112.605C229.934 113.028 229.68 113.53 229.553 114.111C229.431 114.675 229.536 115.188 229.868 115.648C230.191 116.086 230.629 116.392 231.183 116.567C231.463 116.646 231.722 116.654 231.962 116.589C232.205 116.51 232.42 116.389 232.604 116.227C232.788 116.066 232.936 115.86 233.046 115.61C233.171 115.367 233.249 115.111 233.281 114.841C233.313 114.571 233.281 114.343 233.186 114.156C233.092 113.968 232.968 113.821 232.815 113.712C232.667 113.589 232.507 113.504 232.336 113.458C232.149 113.405 231.985 113.389 231.844 113.411C231.736 113.431 231.627 113.486 231.515 113.575C231.408 113.649 231.318 113.748 231.246 113.874C231.174 114 231.136 114.151 231.133 114.328C231.134 114.488 231.202 114.654 231.336 114.824C231.408 114.645 231.521 114.521 231.677 114.453C231.838 114.369 231.997 114.4 232.155 114.546C232.244 114.642 232.292 114.762 232.298 114.908C232.309 115.038 232.278 115.165 232.206 115.291C232.139 115.401 232.037 115.486 231.9 115.546C231.764 115.606 231.598 115.598 231.401 115.522C231.264 115.475 231.128 115.393 230.995 115.276C230.862 115.159 230.753 115.019 230.668 114.854C230.569 114.682 230.508 114.493 230.487 114.287C230.455 114.059 230.487 113.816 230.583 113.559C230.669 113.333 230.799 113.155 230.974 113.024C231.149 112.894 231.344 112.809 231.559 112.768C231.774 112.728 232.001 112.73 232.241 112.772C232.481 112.815 232.71 112.897 232.926 113.018C233.885 113.527 234.189 114.383 233.838 115.586C233.748 115.881 233.599 116.149 233.391 116.388C233.197 116.634 232.945 116.825 232.633 116.962C232.326 117.083 231.979 117.14 231.592 117.135C231.211 117.113 230.798 116.997 230.356 116.787ZM237.976 112.322C237.795 112.805 237.565 113.336 237.287 113.916C237.028 114.486 236.757 115.096 236.475 115.745C236.192 116.393 235.91 117.069 235.628 117.771C235.365 118.465 235.139 119.176 234.95 119.904C235.571 120.306 236.238 120.525 236.953 120.562C237.682 120.607 238.381 120.503 239.049 120.251C239.717 119.999 240.305 119.62 240.814 119.115C241.343 118.601 241.714 117.994 241.928 117.295C242.094 116.751 242.076 116.2 241.875 115.642C241.674 115.084 241.366 114.573 240.951 114.109C240.535 113.644 240.057 113.248 239.516 112.92C238.989 112.598 238.476 112.399 237.976 112.322ZM234.638 121.01C234.506 121.499 234.342 122.035 234.147 122.618C233.952 123.202 233.737 123.794 233.503 124.394C233.283 125.001 233.054 125.613 232.816 126.229C232.581 126.83 232.357 127.399 232.142 127.937C232.665 128.435 233.295 128.832 234.032 129.129C234.768 129.426 235.494 129.566 236.208 129.549C236.942 129.524 237.608 129.307 238.206 128.897C238.804 128.487 239.228 127.817 239.478 126.886C239.634 126.267 239.67 125.706 239.587 125.203C239.504 124.701 239.331 124.246 239.068 123.836C238.824 123.418 238.515 123.048 238.14 122.728C237.78 122.414 237.391 122.14 236.973 121.906C236.555 121.672 236.14 121.484 235.727 121.341C235.32 121.183 234.957 121.073 234.638 121.01Z" fill="black"/>
<path d="M243.972 122.791C243.043 122.146 242.49 121.37 242.314 120.464C242.137 119.558 242.28 118.676 242.744 117.817C242.973 117.395 243.31 117.046 243.755 116.771C244.187 116.486 244.716 116.343 245.341 116.342C245.967 116.341 246.684 116.517 247.491 116.87C248.313 117.232 249.217 117.831 250.204 118.669C250.422 118.854 250.785 119.147 251.295 119.549C251.811 119.935 252.418 120.373 253.116 120.862C253.834 121.346 254.623 121.849 255.482 122.37C256.36 122.886 257.261 123.349 258.184 123.759C258.052 124.074 257.876 124.473 257.656 124.958C257.449 125.453 257.236 125.962 257.017 126.486C256.797 127.01 256.598 127.528 256.418 128.041C256.245 128.538 256.139 128.956 256.101 129.296L255.454 128.975C255.78 128.196 255.984 127.46 256.065 126.766C256.161 126.082 256.07 125.426 255.795 124.798C255.538 124.165 255.053 123.54 254.338 122.924C253.637 122.317 252.649 121.689 251.374 121.041C250.914 121.768 250.423 122.628 249.904 123.621C249.403 124.609 248.868 125.784 248.298 127.147C249.221 128.095 250.042 128.542 250.759 128.488C251.496 128.428 252.157 127.866 252.742 126.801L253.192 127.22C253.006 127.498 252.783 127.865 252.522 128.323C252.261 128.781 251.998 129.285 251.733 129.836C251.481 130.395 251.243 130.984 251.02 131.601C250.802 132.204 250.642 132.796 250.537 133.378L250.055 133.284C250.155 132.756 250.232 132.26 250.286 131.798C250.347 131.321 250.312 130.884 250.182 130.49C250.072 130.089 249.826 129.722 249.445 129.388C249.083 129.048 248.516 128.743 247.744 128.472C247.457 129.239 247.159 130.055 246.849 130.921C246.545 131.772 246.229 132.692 245.902 133.681C245.907 133.877 245.933 134.086 245.979 134.308C246.044 134.525 246.167 134.771 246.347 135.046C246.534 135.307 246.794 135.597 247.129 135.919C247.469 136.225 247.918 136.566 248.473 136.94C249.239 137.475 249.913 137.776 250.493 137.841C251.094 137.9 251.598 137.837 252.006 137.651C252.427 137.474 252.76 137.218 253.004 136.884C253.268 136.543 253.453 136.246 253.56 135.991L254.121 136.456L251.921 140.905C251.623 140.704 251.22 140.442 250.712 140.119C250.211 139.781 249.642 139.417 249.007 139.027C248.391 138.631 247.721 138.218 246.998 137.788C246.294 137.353 245.584 136.932 244.868 136.526C244.166 136.129 243.477 135.761 242.803 135.422C242.142 135.092 241.543 134.822 241.005 134.613L241.071 134.082C241.392 134.145 241.702 134.171 242.001 134.162C242.307 134.138 242.606 134.003 242.899 133.759C243.206 133.525 243.525 133.135 243.857 132.591C244.196 132.032 244.568 131.246 244.974 130.234C245.336 129.326 245.723 128.339 246.135 127.272C246.56 126.215 246.966 125.183 247.352 124.177C247.745 123.155 248.106 122.208 248.436 121.337C248.773 120.45 249.044 119.74 249.25 119.207C248.906 118.783 248.446 118.387 247.871 118.018C247.302 117.635 246.72 117.386 246.124 117.273C245.522 117.136 244.95 117.173 244.41 117.385C243.862 117.572 243.441 118.018 243.147 118.722C242.978 119.126 242.898 119.524 242.908 119.915C242.919 120.305 242.991 120.671 243.127 121.012C243.268 121.338 243.463 121.641 243.709 121.923C243.949 122.181 244.224 122.395 244.535 122.566C244.839 122.752 245.135 122.855 245.421 122.875C245.708 122.896 245.967 122.859 246.197 122.765C246.434 122.656 246.64 122.496 246.814 122.288C246.988 122.079 247.108 121.833 247.174 121.551C247.313 121.011 247.26 120.496 247.014 120.004C246.768 119.512 246.371 119.215 245.823 119.114C245.595 119.076 245.357 119.107 245.106 119.207C244.856 119.307 244.679 119.524 244.574 119.857C244.519 120.03 244.51 120.217 244.549 120.415C244.593 120.599 244.674 120.759 244.791 120.895C244.894 121.022 245.026 121.121 245.188 121.192C245.342 121.238 245.512 121.228 245.696 121.16C245.574 121.078 245.488 120.972 245.438 120.842C245.375 120.703 245.374 120.559 245.437 120.409C245.475 120.32 245.536 120.256 245.622 120.217C245.714 120.164 245.806 120.15 245.9 120.174C246.014 120.193 246.112 120.25 246.194 120.344C246.296 120.432 246.363 120.563 246.394 120.738C246.425 120.912 246.397 121.085 246.308 121.255C246.219 121.426 246.086 121.557 245.909 121.649C245.751 121.735 245.556 121.766 245.322 121.743C245.108 121.714 244.879 121.598 244.634 121.394C244.341 121.139 244.164 120.837 244.101 120.488C244.045 120.124 244.079 119.773 244.204 119.434C244.333 119.042 244.609 118.757 245.03 118.58C245.444 118.379 245.911 118.425 246.431 118.718C246.843 118.938 247.14 119.205 247.321 119.519C247.516 119.843 247.631 120.17 247.666 120.501C247.721 120.826 247.709 121.144 247.631 121.456C247.572 121.762 247.496 122.027 247.402 122.252C247.314 122.462 247.167 122.669 246.959 122.875C246.771 123.075 246.529 123.218 246.231 123.306C245.948 123.403 245.612 123.416 245.224 123.347C244.85 123.287 244.432 123.101 243.972 122.791Z" fill="black"/>
<path d="M251.518 142.342C251.784 142.453 252.042 142.526 252.295 142.562C252.547 142.597 252.794 142.575 253.037 142.496C253.299 142.413 253.558 142.253 253.813 142.016C254.069 141.778 254.333 141.443 254.605 141.008C254.78 140.72 255.024 140.303 255.338 139.758C255.672 139.21 256.035 138.592 256.427 137.904C256.83 137.228 257.247 136.51 257.678 135.751C258.116 134.978 258.536 134.221 258.939 133.48C259.354 132.75 259.729 132.058 260.065 131.406C260.414 130.765 260.692 130.219 260.9 129.77C261.046 129.434 261.126 129.103 261.14 128.777C261.163 128.437 261.127 128.119 261.034 127.824C260.961 127.525 260.846 127.253 260.69 127.007C260.554 126.758 260.415 126.548 260.272 126.377L260.574 125.822C260.727 126.107 260.902 126.401 261.099 126.705C261.316 127.005 261.573 127.332 261.871 127.683C262.168 128.035 262.516 128.41 262.915 128.81C263.325 129.22 263.812 129.657 264.375 130.119C264.748 130.432 265.16 130.791 265.61 131.194C266.069 131.584 266.5 132.023 266.904 132.513C267.315 132.988 267.678 133.503 267.991 134.059C268.324 134.612 268.546 135.203 268.657 135.833C268.768 136.462 268.741 137.127 268.577 137.828C268.434 138.526 268.097 139.262 267.567 140.038C266.935 140.934 266.305 141.577 265.677 141.968C265.068 142.355 264.469 142.559 263.878 142.581C263.307 142.599 262.758 142.477 262.23 142.216C261.722 141.951 261.259 141.621 260.84 141.225C261.216 142.134 261.418 143.078 261.447 144.057C261.476 145.037 261.368 146.085 261.124 147.201C260.991 147.845 260.869 148.436 260.759 148.972C260.66 149.52 260.627 150.031 260.659 150.505C260.684 150.993 260.797 151.434 261 151.827C261.195 152.235 261.529 152.619 262.002 152.98L261.661 153.31C261.477 153.081 261.202 152.804 260.837 152.476C260.464 152.163 260.069 151.841 259.652 151.509C259.227 151.192 258.811 150.893 258.402 150.611C258.006 150.341 257.675 150.151 257.41 150.04L257.521 149.535C257.982 149.652 258.382 149.566 258.721 149.276C259.059 148.986 259.342 148.381 259.57 147.462C259.674 147.004 259.795 146.466 259.932 145.847C260.076 145.214 260.183 144.567 260.252 143.908C260.32 143.249 260.323 142.594 260.26 141.944C260.196 141.294 260.019 140.722 259.727 140.226C259.41 139.71 259.11 139.313 258.825 139.037C258.553 138.772 258.31 138.586 258.096 138.479C257.748 139.121 257.402 139.775 257.058 140.441C256.722 141.093 256.447 141.748 256.235 142.406C256.03 143.049 255.915 143.677 255.89 144.29C255.865 144.903 256.002 145.483 256.304 146.028L256.026 146.288C255.835 146.074 255.558 145.784 255.196 145.417C254.827 145.065 254.421 144.712 253.98 144.358C253.53 144.019 253.069 143.701 252.597 143.405C252.129 143.134 251.697 142.98 251.301 142.942L251.518 142.342ZM263.195 130.492C262.721 130.999 262.245 131.558 261.768 132.17C261.311 132.777 260.867 133.396 260.434 134.026C260.022 134.652 259.643 135.266 259.298 135.868C258.953 136.47 258.672 137.003 258.456 137.467C259.138 138.311 259.793 139.004 260.422 139.546C261.058 140.074 261.683 140.39 262.296 140.495C262.909 140.599 263.516 140.465 264.117 140.092C264.737 139.716 265.367 139.04 266.005 138.065C266.394 137.482 266.632 136.911 266.718 136.352C266.817 135.805 266.812 135.281 266.703 134.781C266.595 134.281 266.405 133.814 266.134 133.38C265.882 132.943 265.586 132.539 265.244 132.169C264.902 131.799 264.547 131.47 264.178 131.182C263.822 130.905 263.494 130.675 263.195 130.492Z" fill="black"/>
<path d="M200.378 227.071L212.76 205.836C212.894 205.599 213.085 205.399 213.316 205.254C213.547 205.109 213.81 205.023 214.081 205.004C214.353 204.985 214.626 205.034 214.874 205.146C215.122 205.258 215.339 205.43 215.505 205.646C219.773 211.131 219.348 219.041 214.518 224.009L211.75 226.854M191.13 243.647C189.155 246.909 188.267 249.999 184.75 249.999C181.022 249.999 178 246.892 178 243.057C178 239.222 181.022 236.112 184.75 236.112C188.25 236.112 191.125 238.849 191.465 242.357C191.495 242.811 191.377 243.262 191.13 243.644V243.647ZM191.13 243.647L196 234.957L191.13 243.647ZM209.87 243.647C211.845 246.909 212.732 249.999 216.25 249.999C219.977 249.999 223 246.892 223 243.057C223 239.222 219.977 236.112 216.25 236.112C212.75 236.112 209.875 238.849 209.532 242.357C209.49 242.812 209.633 243.257 209.87 243.644V243.647ZM209.87 243.647L188.232 205.864C188.1 205.624 187.91 205.422 187.679 205.274C187.449 205.127 187.185 205.039 186.912 205.019C186.639 204.999 186.366 205.047 186.116 205.159C185.866 205.271 185.649 205.444 185.483 205.661C181.223 211.136 181.647 219.036 186.47 223.994L209.87 243.644V243.647Z" stroke="black" stroke-width="2" stroke-linecap="round" stroke-linejoin="round"/>
<defs>
<filter id="filter0_d" x="165.488" y="157.615" width="61.4826" height="28.0156" filterUnits="userSpaceOnUse" color-interpolation-filters="sRGB">
<feFlood flood-opacity="0" result="BackgroundImageFix"/>
<feColorMatrix in="SourceAlpha" type="matrix" values="0 0 0 0 0 0 0 0 0 0 0 0 0 0 0 0 0 0 127 0" result="hardAlpha"/>
<feOffset dy="4"/>
<feGaussianBlur stdDeviation="2"/>
<feComposite in2="hardAlpha" operator="out"/>
<feColorMatrix type="matrix" values="0 0 0 0 0 0 0 0 0 0 0 0 0 0 0 0 0 0 0.25 0"/>
<feBlend mode="normal" in2="BackgroundImageFix" result="effect1_dropShadow"/>
<feBlend mode="normal" in="SourceGraphic" in2="effect1_dropShadow" result="shape"/>
</filter>
</defs>
</svg>
