<svg width="350" height="280" viewBox="0 0 350 280" fill="none" xmlns="http://www.w3.org/2000/svg">
<rect x="10" y="71.8277" width="47" height="141" rx="3" fill="white"/>
<circle cx="33.6724" cy="35.5" r="32.5" transform="rotate(-90 33.6724 35.5)" fill="#363333"/>
<rect x="1" y="58.8277" width="65" height="13" rx="6.5" fill="#363333"/>
<path d="M11.016 215.023L6.99999 211.007L56.0071 162L60.0231 166.016L11.016 215.023Z" fill="#1C6997"/>
<path d="M11.016 236.023L6.99999 232.007L56.0071 183L60.0231 187.016L11.016 236.023Z" fill="#C54134"/>
<path d="M11.0161 97.0975L7.00011 93.0815L31.0816 69L35.0976 73.016L11.0161 97.0975Z" fill="#1C6997"/>
<path d="M11.016 135.097L6.99999 131.081L56.0071 82.0744L60.0231 86.0904L11.016 135.097Z" fill="#1C6997"/>
<path d="M11.016 155.023L6.99999 151.007L56.0071 102L60.0231 106.016L11.016 155.023Z" fill="#C54134"/>
<path d="M11.016 176.023L6.99999 172.007L56.0071 123L60.0231 127.016L11.016 176.023Z" fill="#1C6997"/>
<path d="M11.016 196.023L6.99999 192.007L56.0071 143L60.0231 147.016L11.016 196.023Z" fill="#C54134"/>
<path d="M11.016 117.097L6.99999 113.081L51.7022 68.3792L55.7182 72.3952L11.016 117.097Z" fill="#C54134"/>
<rect x="56" y="71" width="4" height="141" fill="#363333"/>
<rect x="7" y="71" width="4" height="141" fill="#363333"/>
<rect x="9" y="68" width="51" height="5" fill="#363333"/>
<rect x="9" y="211" width="51" height="2" fill="#363333"/>
<circle cx="33.5" cy="2.5" r="2.5" fill="#363333"/>
<path d="M3 35.7658C3.17272 19.4072 15 6.5 28.5 5.26581" stroke="white"/>
<circle cx="32.5" cy="244.328" r="32.5" transform="rotate(90 32.5 244.328)" fill="#363333"/>
<rect x="65.1724" y="221" width="65" height="13" rx="6.5" transform="rotate(180 65.1724 221)" fill="#363333"/>
<circle cx="32.6724" cy="277.328" r="2.5" transform="rotate(180 32.6724 277.328)" fill="#363333"/>
<path d="M63.1724 244.062C62.9996 260.42 51.1724 273.328 37.6723 274.562" stroke="white"/>
<rect x="293" y="71.8277" width="47" height="141" rx="3" fill="white"/>
<circle cx="316.672" cy="35.5" r="32.5" transform="rotate(-90 316.672 35.5)" fill="#363333"/>
<rect x="284" y="58.8277" width="65" height="13" rx="6.5" fill="#363333"/>
<path d="M294.016 215.023L290 211.007L339.007 162L343.023 166.016L294.016 215.023Z" fill="#1C6997"/>
<path d="M294.016 236.023L290 232.007L339.007 183L343.023 187.016L294.016 236.023Z" fill="#C54134"/>
<path d="M294.016 97.0975L290 93.0815L314.082 69L318.098 73.016L294.016 97.0975Z" fill="#1C6997"/>
<path d="M294.016 135.097L290 131.081L339.007 82.0744L343.023 86.0904L294.016 135.097Z" fill="#1C6997"/>
<path d="M294.016 155.023L290 151.007L339.007 102L343.023 106.016L294.016 155.023Z" fill="#C54134"/>
<path d="M294.016 176.023L290 172.007L339.007 123L343.023 127.016L294.016 176.023Z" fill="#1C6997"/>
<path d="M294.016 196.023L290 192.007L339.007 143L343.023 147.016L294.016 196.023Z" fill="#C54134"/>
<path d="M294.016 117.097L290 113.081L334.702 68.3792L338.718 72.3952L294.016 117.097Z" fill="#C54134"/>
<rect x="339" y="71" width="4" height="141" fill="#363333"/>
<rect x="290" y="71" width="4" height="141" fill="#363333"/>
<rect x="292" y="68" width="51" height="5" fill="#363333"/>
<rect x="292" y="211" width="51" height="2" fill="#363333"/>
<circle cx="316.5" cy="2.5" r="2.5" fill="#363333"/>
<path d="M286 35.7658C286.173 19.4072 298 6.5 311.5 5.26581" stroke="white"/>
<circle cx="315.5" cy="244.328" r="32.5" transform="rotate(90 315.5 244.328)" fill="#363333"/>
<rect x="348.172" y="221" width="65" height="13" rx="6.5" transform="rotate(180 348.172 221)" fill="#363333"/>
<circle cx="315.672" cy="277.328" r="2.5" transform="rotate(180 315.672 277.328)" fill="#363333"/>
<path d="M346.172 244.062C346 260.42 334.172 273.328 320.672 274.562" stroke="white"/>
<g filter="url(#filter0_d)">
<path d="M148.746 164.375C148.59 164.375 148.473 164.328 148.395 164.234C148.332 164.141 148.301 164.039 148.301 163.93C148.301 163.82 148.332 163.727 148.395 163.648C148.457 163.555 148.551 163.516 148.676 163.531C148.582 163.438 148.426 163.398 148.207 163.414C148.035 163.445 147.871 163.562 147.715 163.766C147.574 163.953 147.52 164.18 147.551 164.445C147.566 164.727 147.684 164.992 147.902 165.242C148.121 165.492 148.426 165.609 148.816 165.594C149.02 165.594 149.215 165.539 149.402 165.43C149.59 165.32 149.754 165.18 149.895 165.008C150.035 164.82 150.145 164.609 150.223 164.375C150.301 164.141 150.34 163.898 150.34 163.648C150.324 163.383 150.262 163.125 150.152 162.875C150.043 162.609 149.887 162.375 149.684 162.172C149.496 161.953 149.262 161.781 148.98 161.656C148.699 161.516 148.379 161.445 148.02 161.445C147.301 161.445 146.738 161.664 146.332 162.102C145.926 162.539 145.738 163.18 145.77 164.023C145.785 164.445 145.895 164.875 146.098 165.312C146.301 165.734 146.582 166.117 146.941 166.461C147.316 166.805 147.754 167.078 148.254 167.281C148.77 167.5 149.332 167.609 149.941 167.609C150.504 167.609 150.996 167.5 151.418 167.281C151.84 167.062 152.199 166.781 152.496 166.438C152.793 166.078 153.012 165.672 153.152 165.219C153.309 164.766 153.387 164.297 153.387 163.812C153.387 163.5 153.332 163.156 153.223 162.781C153.129 162.406 152.949 162.008 152.684 161.586C152.434 161.164 152.098 160.719 151.676 160.25C151.254 159.781 150.723 159.305 150.082 158.82C149.457 158.336 148.863 157.883 148.301 157.461C147.754 157.039 147.27 156.625 146.848 156.219C146.441 155.797 146.113 155.359 145.863 154.906C145.629 154.438 145.512 153.914 145.512 153.336C145.512 152.758 145.613 152.203 145.816 151.672C146.035 151.125 146.348 150.648 146.754 150.242C147.176 149.836 147.691 149.516 148.301 149.281C148.91 149.031 149.605 148.922 150.387 148.953C150.84 148.969 151.27 149.047 151.676 149.188C152.098 149.328 152.488 149.469 152.848 149.609C153.223 149.75 153.574 149.867 153.902 149.961C154.23 150.039 154.535 150.023 154.816 149.914C154.941 149.867 155.051 149.797 155.145 149.703C155.223 149.625 155.301 149.523 155.379 149.398C155.457 149.273 155.512 149.102 155.543 148.883L156.199 148.93C156.152 149.227 156.098 149.602 156.035 150.055C155.973 150.508 155.926 150.984 155.895 151.484C155.879 151.969 155.887 152.453 155.918 152.938C155.949 153.406 156.027 153.812 156.152 154.156L155.543 154.297C155.402 153.859 155.238 153.422 155.051 152.984C154.879 152.531 154.668 152.117 154.418 151.742C154.184 151.367 153.91 151.031 153.598 150.734C153.285 150.438 152.918 150.203 152.496 150.031C152.121 149.891 151.738 149.797 151.348 149.75C150.973 149.688 150.605 149.711 150.246 149.82C149.902 149.93 149.566 150.125 149.238 150.406C148.926 150.688 148.637 151.094 148.371 151.625C148.105 152.156 147.996 152.75 148.043 153.406C148.105 154.062 148.285 154.633 148.582 155.117C148.754 155.43 148.957 155.727 149.191 156.008C149.441 156.273 149.699 156.531 149.965 156.781C150.23 157.016 150.504 157.25 150.785 157.484C151.082 157.719 151.371 157.953 151.652 158.188C152.199 158.672 152.707 159.156 153.176 159.641C153.645 160.125 154.043 160.625 154.371 161.141C154.715 161.641 154.98 162.164 155.168 162.711C155.355 163.242 155.449 163.789 155.449 164.352C155.449 164.93 155.309 165.492 155.027 166.039C154.746 166.586 154.355 167.07 153.855 167.492C153.371 167.914 152.801 168.25 152.145 168.5C151.504 168.766 150.824 168.898 150.105 168.898C149.402 168.898 148.738 168.773 148.113 168.523C147.504 168.289 146.973 167.945 146.52 167.492C146.066 167.055 145.707 166.539 145.441 165.945C145.176 165.336 145.043 164.664 145.043 163.93C145.043 163.352 145.129 162.867 145.301 162.477C145.473 162.07 145.699 161.742 145.98 161.492C146.262 161.242 146.582 161.062 146.941 160.953C147.301 160.844 147.668 160.789 148.043 160.789C148.434 160.789 148.809 160.852 149.168 160.977C149.543 161.086 149.871 161.266 150.152 161.516C150.434 161.766 150.652 162.086 150.809 162.477C150.98 162.867 151.066 163.328 151.066 163.859C151.066 164.234 150.98 164.57 150.809 164.867C150.652 165.148 150.449 165.391 150.199 165.594C149.949 165.781 149.676 165.922 149.379 166.016C149.098 166.109 148.832 166.148 148.582 166.133C148.332 166.117 148.105 166.055 147.902 165.945C147.699 165.836 147.52 165.703 147.363 165.547C147.223 165.391 147.113 165.227 147.035 165.055C146.957 164.867 146.918 164.688 146.918 164.516C146.934 164.359 146.965 164.188 147.012 164C147.074 163.812 147.168 163.641 147.293 163.484C147.418 163.312 147.574 163.18 147.762 163.086C147.949 162.977 148.176 162.922 148.441 162.922C148.691 162.922 148.895 163 149.051 163.156C149.207 163.297 149.293 163.477 149.309 163.695C149.34 163.883 149.293 164.047 149.168 164.188C149.059 164.312 148.918 164.375 148.746 164.375ZM155.73 167.609C156.074 167.406 156.371 167.227 156.621 167.07C156.871 166.93 157.082 166.727 157.254 166.461C157.441 166.18 157.59 165.797 157.699 165.312C157.809 164.828 157.902 164.164 157.98 163.32C158.152 161.617 158.277 160.016 158.355 158.516C158.449 157 158.449 155.461 158.355 153.898C158.309 153.242 158.207 152.703 158.051 152.281C157.895 151.859 157.715 151.531 157.512 151.297C157.324 151.047 157.137 150.867 156.949 150.758C156.762 150.633 156.613 150.531 156.504 150.453L156.551 149.961C156.801 150.023 157.113 150.102 157.488 150.195C157.879 150.273 158.316 150.344 158.801 150.406C159.285 150.453 159.816 150.469 160.395 150.453C160.973 150.438 161.582 150.367 162.223 150.242L162.246 150.664C162.152 150.711 162.004 150.836 161.801 151.039C161.598 151.242 161.387 151.531 161.168 151.906C160.965 152.281 160.77 152.766 160.582 153.359C160.41 153.938 160.293 154.633 160.23 155.445C160.168 155.961 160.121 156.484 160.09 157.016C160.074 157.531 160.059 158.047 160.043 158.562C160.434 158.578 160.887 158.594 161.402 158.609C161.918 158.609 162.465 158.602 163.043 158.586C163.621 158.555 164.207 158.508 164.801 158.445C165.41 158.383 165.996 158.281 166.559 158.141C166.543 157.156 166.527 156.242 166.512 155.398C166.496 154.539 166.48 153.883 166.465 153.43C166.449 153.023 166.387 152.617 166.277 152.211C166.168 151.789 166.027 151.398 165.855 151.039C165.684 150.68 165.473 150.359 165.223 150.078C164.973 149.781 164.699 149.562 164.402 149.422L164.449 148.977C164.684 149.055 165.059 149.141 165.574 149.234C166.105 149.312 166.684 149.383 167.309 149.445C167.949 149.492 168.59 149.508 169.23 149.492C169.887 149.477 170.473 149.398 170.988 149.258L170.941 149.797C170.691 149.906 170.434 150.039 170.168 150.195C169.902 150.336 169.66 150.539 169.441 150.805C169.223 151.055 169.027 151.375 168.855 151.766C168.699 152.156 168.598 152.648 168.551 153.242C168.504 153.852 168.457 154.625 168.41 155.562C168.363 156.5 168.332 157.492 168.316 158.539C168.316 159.57 168.348 160.594 168.41 161.609C168.473 162.625 168.59 163.516 168.762 164.281C168.871 164.781 168.996 165.195 169.137 165.523C169.277 165.836 169.441 166.102 169.629 166.32C169.816 166.523 170.027 166.695 170.262 166.836C170.496 166.961 170.754 167.078 171.035 167.188L170.824 167.539C170.387 167.398 169.902 167.281 169.371 167.188C168.855 167.094 168.332 167.031 167.801 167C167.27 166.953 166.762 166.945 166.277 166.977C165.793 166.992 165.371 167.031 165.012 167.094L164.941 166.531C165.223 166.438 165.465 166.336 165.668 166.227C165.887 166.117 166.066 165.953 166.207 165.734C166.348 165.5 166.449 165.18 166.512 164.773C166.574 164.367 166.605 163.812 166.605 163.109C166.59 162.672 166.582 162.188 166.582 161.656C166.582 161.125 166.582 160.562 166.582 159.969C166.129 159.922 165.621 159.891 165.059 159.875C164.496 159.844 163.918 159.828 163.324 159.828C162.746 159.828 162.168 159.852 161.59 159.898C161.027 159.93 160.512 159.984 160.043 160.062C160.059 160.938 160.09 161.766 160.137 162.547C160.184 163.328 160.262 164.047 160.371 164.703C160.434 165.156 160.512 165.523 160.605 165.805C160.715 166.07 160.832 166.289 160.957 166.461C161.098 166.617 161.254 166.75 161.426 166.859C161.613 166.953 161.824 167.055 162.059 167.164L161.918 167.633C161.59 167.555 161.16 167.5 160.629 167.469C160.098 167.453 159.543 167.453 158.965 167.469C158.387 167.5 157.832 167.555 157.301 167.633C156.77 167.711 156.34 167.82 156.012 167.961L155.73 167.609ZM177.715 168.477C177.059 168.477 176.348 168.281 175.582 167.891C174.816 167.5 174.105 166.906 173.449 166.109C172.809 165.297 172.277 164.266 171.855 163.016C171.434 161.766 171.238 160.281 171.27 158.562C171.301 156.984 171.559 155.641 172.043 154.531C172.543 153.406 173.152 152.492 173.871 151.789C174.59 151.086 175.348 150.57 176.145 150.242C176.957 149.914 177.691 149.75 178.348 149.75C179.176 149.75 179.965 149.93 180.715 150.289C181.48 150.648 182.16 151.18 182.754 151.883C183.348 152.57 183.824 153.43 184.184 154.461C184.559 155.477 184.77 156.648 184.816 157.977C184.863 159.445 184.684 160.828 184.277 162.125C183.871 163.406 183.324 164.523 182.637 165.477C181.965 166.414 181.191 167.148 180.316 167.68C179.441 168.227 178.574 168.492 177.715 168.477ZM173.238 158.844C173.223 159.312 173.23 159.836 173.262 160.414C173.293 160.977 173.363 161.555 173.473 162.148C173.582 162.742 173.73 163.328 173.918 163.906C174.121 164.469 174.371 164.977 174.668 165.43C174.965 165.883 175.316 166.258 175.723 166.555C176.129 166.852 176.605 167.016 177.152 167.047C177.684 167.078 178.199 166.953 178.699 166.672C179.199 166.391 179.66 166 180.082 165.5C180.52 165 180.91 164.414 181.254 163.742C181.598 163.07 181.887 162.375 182.121 161.656C182.355 160.922 182.527 160.195 182.637 159.477C182.746 158.742 182.785 158.055 182.754 157.414C182.707 156.82 182.652 156.312 182.59 155.891C182.527 155.453 182.441 155.078 182.332 154.766C182.332 155.047 182.301 155.336 182.238 155.633C182.191 155.914 182.098 156.195 181.957 156.477C181.816 156.758 181.621 157.023 181.371 157.273C181.137 157.523 180.832 157.734 180.457 157.906C179.895 158.172 179.363 158.32 178.863 158.352C178.363 158.367 177.918 158.289 177.527 158.117C177.137 157.945 176.809 157.68 176.543 157.32C176.293 156.945 176.137 156.492 176.074 155.961C175.996 155.43 176.035 154.961 176.191 154.555C176.363 154.133 176.59 153.781 176.871 153.5C177.152 153.203 177.473 152.977 177.832 152.82C178.191 152.664 178.543 152.57 178.887 152.539C178.996 152.539 179.145 152.555 179.332 152.586C179.52 152.602 179.707 152.664 179.895 152.773C180.082 152.867 180.246 153.023 180.387 153.242C180.527 153.461 180.605 153.758 180.621 154.133C180.637 154.523 180.551 154.859 180.363 155.141C180.191 155.406 179.973 155.617 179.707 155.773C179.457 155.93 179.191 156.023 178.91 156.055C178.645 156.07 178.418 156.031 178.23 155.938C178.059 155.828 177.957 155.695 177.926 155.539C177.895 155.367 177.91 155.211 177.973 155.07C178.035 154.914 178.129 154.789 178.254 154.695C178.395 154.602 178.543 154.57 178.699 154.602C178.934 154.664 179.074 154.797 179.121 155C179.184 155.188 179.191 155.367 179.145 155.539C179.457 155.461 179.684 155.297 179.824 155.047C179.98 154.797 180.051 154.539 180.035 154.273C180.035 154.008 179.949 153.773 179.777 153.57C179.621 153.352 179.379 153.242 179.051 153.242C178.457 153.242 177.941 153.438 177.504 153.828C177.066 154.203 176.84 154.75 176.824 155.469C176.824 155.703 176.848 155.953 176.895 156.219C176.941 156.484 177.035 156.727 177.176 156.945C177.332 157.164 177.543 157.344 177.809 157.484C178.074 157.609 178.434 157.656 178.887 157.625C179.324 157.594 179.707 157.484 180.035 157.297C180.379 157.094 180.66 156.852 180.879 156.57C181.113 156.273 181.293 155.945 181.418 155.586C181.543 155.227 181.605 154.859 181.605 154.484C181.621 153.812 181.543 153.258 181.371 152.82C181.199 152.367 180.973 152.008 180.691 151.742C180.426 151.461 180.121 151.266 179.777 151.156C179.449 151.047 179.129 150.984 178.816 150.969C178.129 150.953 177.465 151.188 176.824 151.672C176.184 152.141 175.605 152.75 175.09 153.5C174.574 154.25 174.145 155.102 173.801 156.055C173.473 156.992 173.285 157.922 173.238 158.844ZM187.535 153.734C187.426 153.062 187.293 152.492 187.137 152.023C186.98 151.555 186.785 151.164 186.551 150.852C186.316 150.523 186.043 150.266 185.73 150.078C185.402 149.875 185.02 149.727 184.582 149.633L184.676 149.047C184.91 149.141 185.199 149.258 185.543 149.398C185.887 149.523 186.277 149.641 186.715 149.75C187.168 149.844 187.66 149.906 188.191 149.938C188.738 149.953 189.332 149.891 189.973 149.75C189.91 150.156 189.848 150.648 189.785 151.227C189.738 151.805 189.699 152.367 189.668 152.914C189.918 152.398 190.215 151.891 190.559 151.391C190.918 150.875 191.324 150.43 191.777 150.055C192.246 149.664 192.762 149.375 193.324 149.188C193.902 149 194.535 148.961 195.223 149.07C195.754 149.164 196.238 149.406 196.676 149.797C197.113 150.172 197.48 150.664 197.777 151.273C198.074 151.867 198.285 152.555 198.41 153.336C198.535 154.117 198.559 154.938 198.48 155.797C198.387 156.672 198.223 157.5 197.988 158.281C197.754 159.062 197.434 159.742 197.027 160.32C196.637 160.883 196.152 161.328 195.574 161.656C195.012 161.969 194.355 162.086 193.605 162.008C193.105 161.961 192.637 161.844 192.199 161.656C191.777 161.453 191.387 161.203 191.027 160.906C190.668 160.594 190.348 160.242 190.066 159.852C189.785 159.461 189.543 159.055 189.34 158.633C189.34 159.039 189.348 159.5 189.363 160.016C189.379 160.516 189.402 161.031 189.434 161.562C189.465 162.078 189.504 162.602 189.551 163.133C189.598 163.648 189.652 164.125 189.715 164.562C189.793 165.094 189.91 165.516 190.066 165.828C190.223 166.125 190.395 166.359 190.582 166.531C190.77 166.688 190.957 166.797 191.145 166.859C191.332 166.922 191.496 166.977 191.637 167.023L191.543 167.469C191.027 167.359 190.496 167.289 189.949 167.258C189.418 167.227 188.902 167.219 188.402 167.234C187.918 167.266 187.465 167.32 187.043 167.398C186.637 167.477 186.309 167.57 186.059 167.68L186.035 167.023C186.238 166.852 186.426 166.695 186.598 166.555C186.77 166.398 186.918 166.18 187.043 165.898C187.184 165.617 187.293 165.242 187.371 164.773C187.465 164.289 187.527 163.641 187.559 162.828C187.621 161.203 187.684 159.617 187.746 158.07C187.809 156.508 187.738 155.062 187.535 153.734ZM189.527 155.68C189.496 156.117 189.551 156.609 189.691 157.156C189.848 157.688 190.074 158.203 190.371 158.703C190.684 159.188 191.059 159.609 191.496 159.969C191.949 160.328 192.457 160.531 193.02 160.578C193.504 160.625 193.926 160.547 194.285 160.344C194.645 160.141 194.949 159.867 195.199 159.523C195.465 159.18 195.684 158.789 195.855 158.352C196.027 157.914 196.16 157.477 196.254 157.039C196.348 156.586 196.41 156.164 196.441 155.773C196.488 155.367 196.52 155.031 196.535 154.766C196.535 154.328 196.488 153.867 196.395 153.383C196.301 152.883 196.145 152.422 195.926 152C195.723 151.578 195.457 151.227 195.129 150.945C194.816 150.664 194.449 150.508 194.027 150.477C193.465 150.461 192.918 150.625 192.387 150.969C191.871 151.297 191.41 151.719 191.004 152.234C190.598 152.75 190.262 153.32 189.996 153.945C189.73 154.555 189.574 155.133 189.527 155.68Z" fill="white"/>
</g>
<path d="M96.1317 122.9C95.584 123.386 95.0185 123.796 94.4354 124.13C93.8584 124.439 93.3061 124.63 92.7784 124.704C92.2307 124.773 91.7304 124.698 91.2774 124.479C90.8045 124.254 90.4047 123.846 90.0781 123.255C89.772 122.708 89.6312 122.158 89.6555 121.604C89.6668 121.06 89.7814 120.568 89.9993 120.128C90.2172 119.689 90.5153 119.309 90.8937 118.988C91.2522 118.663 91.6291 118.452 92.0243 118.358C92.4257 118.238 92.8193 118.254 93.2051 118.404C93.5841 118.54 93.8961 118.834 94.1412 119.287C94.4952 119.937 94.5968 120.517 94.4462 121.026C94.2955 121.534 94.021 121.946 93.6226 122.262C93.2243 122.577 92.8335 122.738 92.4501 122.745C92.0537 122.761 91.7329 122.543 91.4878 122.09C91.3653 121.863 91.299 121.644 91.2891 121.433C91.2593 121.217 91.2662 121.024 91.3097 120.853C91.3334 120.676 91.3938 120.522 91.4909 120.391C91.5812 120.244 91.6786 120.132 91.7831 120.055C91.9985 119.875 92.2023 119.803 92.3946 119.839C92.5931 119.851 92.7636 119.972 92.9061 120.204C93.0286 120.43 93.0485 120.644 92.9657 120.844C92.8761 121.03 92.7292 121.149 92.5251 121.201C92.3869 121.244 92.2736 121.189 92.1853 121.036C92.0839 120.893 92.0351 120.731 92.0388 120.55C91.9349 120.666 91.8677 120.806 91.8371 120.967C91.8066 121.129 91.8393 121.313 91.9351 121.52C92.0582 121.786 92.2296 121.966 92.4493 122.061C92.6621 122.141 92.9447 122.031 93.297 121.73C93.4799 121.594 93.5998 121.435 93.6564 121.254C93.7261 121.064 93.7629 120.878 93.7667 120.696C93.7704 120.515 93.748 120.353 93.6995 120.21C93.6572 120.043 93.6156 119.915 93.5745 119.827C93.5334 119.738 93.4523 119.62 93.3309 119.472C93.2227 119.314 93.0721 119.197 92.8792 119.122C92.6925 119.023 92.4638 118.984 92.1931 119.006C91.9355 119.019 91.6299 119.136 91.2764 119.359C90.9167 119.606 90.6599 119.886 90.5061 120.199C90.3455 120.496 90.2512 120.805 90.2231 121.123C90.1951 121.442 90.2131 121.746 90.2771 122.036C90.3412 122.325 90.4242 122.562 90.5263 122.744C90.7172 123.118 90.9826 123.388 91.3224 123.552C91.649 123.726 92.0498 123.776 92.5246 123.702C92.9796 123.622 93.4986 123.416 94.0818 123.082C94.678 122.739 95.3181 122.244 96.0022 121.597C95.9382 120.891 95.8574 120.167 95.7598 119.426C95.6622 118.684 95.555 117.96 95.4381 117.253C95.3213 116.546 95.1916 115.868 95.0492 115.22C94.9068 114.571 94.7523 113.991 94.5856 113.48C94.1831 112.27 93.678 111.464 93.07 111.062C92.4552 110.645 91.8339 110.65 91.2059 111.076L91.0174 110.442C91.2732 110.312 91.6305 110.116 92.0891 109.855C92.5609 109.584 93.0685 109.277 93.6118 108.933C94.1483 108.575 94.6779 108.202 95.2007 107.814C95.7167 107.411 96.1599 107.003 96.5302 106.589L96.714 106.929C96.5715 107.114 96.442 107.29 96.3256 107.455C96.2092 107.621 96.1292 107.79 96.0856 107.961C96.0352 108.117 96.028 108.291 96.0641 108.483C96.0933 108.66 96.1888 108.847 96.3506 109.044C96.5192 109.257 96.8265 109.673 97.2726 110.295C97.7187 110.917 98.2491 111.644 98.8638 112.478C99.4785 113.312 100.154 114.2 100.889 115.143C101.624 116.085 102.359 116.969 103.092 117.794C103.826 118.619 104.505 119.326 105.129 119.915C105.766 120.494 106.338 120.932 106.845 121.231C107.346 121.515 107.781 121.638 108.15 121.602C108.527 121.581 108.834 121.372 109.073 120.977C109.182 120.757 109.254 120.515 109.289 120.251C109.319 120.011 109.314 119.736 109.276 119.427C109.239 119.118 109.137 118.766 108.972 118.372L109.236 118.088C109.397 118.285 109.551 118.578 109.696 118.967C109.834 119.341 109.926 119.748 109.973 120.19C110.019 120.632 109.987 121.073 109.874 121.513C109.769 121.969 109.544 122.354 109.198 122.67C108.918 122.937 108.572 123.175 108.158 123.382C107.758 123.58 107.287 123.642 106.743 123.569C106.213 123.486 105.6 123.207 104.905 122.73C104.223 122.244 103.461 121.451 102.617 120.35C102.38 120.029 102.147 119.716 101.918 119.41C101.681 119.089 101.452 118.784 101.229 118.492C100.864 118.803 100.365 119.223 99.7317 119.753C99.0987 120.282 98.443 120.838 97.7646 121.421C97.9996 122.497 98.2325 123.435 98.4633 124.236C98.6032 124.728 98.7382 125.114 98.8682 125.394C99.0113 125.665 99.1566 125.865 99.304 125.994C99.4447 126.108 99.6108 126.163 99.8025 126.16C100.007 126.147 100.248 126.097 100.524 126.011L100.72 126.491C100.47 126.597 100.114 126.812 99.6492 127.137C99.1849 127.462 98.6982 127.833 98.1891 128.25C97.6999 128.673 97.221 129.118 96.7523 129.584C96.3035 130.056 95.9764 130.488 95.771 130.878L95.2652 130.241C95.478 129.905 95.6722 129.642 95.8478 129.452C96.0034 129.257 96.1325 129.062 96.2353 128.867C96.3311 128.657 96.3999 128.407 96.4417 128.118C96.4766 127.814 96.4735 127.41 96.4325 126.904C96.4133 126.522 96.3751 125.984 96.318 125.293C96.2739 124.591 96.2184 123.789 96.1513 122.886L96.1317 122.9ZM95.6632 110.745C95.7777 111.295 95.9001 111.939 96.0307 112.675C96.1613 113.412 96.3058 114.198 96.4644 115.033C96.6161 115.853 96.7749 116.707 96.941 117.596C97.12 118.476 97.2988 119.335 97.4773 120.175C98.0437 119.616 98.5811 119.108 99.0896 118.651C99.6112 118.185 100.068 117.786 100.459 117.456C99.4196 116.084 98.4944 114.846 97.6837 113.741C96.873 112.636 96.1995 111.637 95.6632 110.745Z" fill="white"/>
<path d="M109.578 118.108C109.901 117.08 110.151 116.157 110.327 115.34C110.512 114.5 110.68 113.66 110.832 112.821C110.983 111.981 111.157 111.083 111.352 110.127C111.543 109.155 111.81 108.011 112.153 106.695C112.663 104.733 113.049 103.099 113.311 101.793C113.587 100.479 113.763 99.441 113.84 98.6804C112.696 99.1437 111.688 99.6315 110.815 100.144C109.956 100.648 109.255 101.266 108.711 101.997C108.181 102.719 107.831 103.597 107.662 104.631C107.487 105.649 107.529 106.903 107.787 108.393L107.078 108.767C107.034 108.443 106.95 107.975 106.825 107.366C106.7 106.756 106.538 106.113 106.339 105.435C106.149 104.733 105.933 104.056 105.691 103.402C105.464 102.74 105.228 102.202 104.985 101.789C105.863 101.439 106.771 101.054 107.709 100.633C108.647 100.212 109.565 99.7571 110.463 99.2675C111.37 98.7545 112.229 98.2036 113.042 97.6149C113.869 97.0182 114.615 96.3572 115.28 95.6319C115.361 95.917 115.444 96.1362 115.531 96.2895C115.617 96.4427 115.691 96.5575 115.751 96.6339C115.83 96.7176 115.899 96.7705 115.958 96.7926C115.156 99.8755 114.346 103.156 113.528 106.634C112.724 110.104 112.025 113.782 111.431 117.666C112.035 117.306 112.641 116.954 113.25 116.609C113.859 116.265 114.439 115.909 114.99 115.542C115.535 115.16 116.028 114.771 116.467 114.375C116.901 113.964 117.248 113.52 117.507 113.042C117.843 112.447 118.049 111.789 118.122 111.067C118.204 110.322 118.197 109.462 118.099 108.488L118.574 108.246C118.698 109.298 118.839 110.248 118.995 111.097C119.152 111.946 119.295 112.683 119.425 113.308C119.587 114.025 119.752 114.677 119.919 115.262C119.105 115.503 118.289 115.762 117.471 116.041C116.653 116.32 115.851 116.645 115.065 117.016C114.279 117.388 113.517 117.828 112.778 118.338C112.054 118.84 111.359 119.426 110.693 120.097C110.502 119.69 110.338 119.36 110.2 119.107C110.057 118.839 109.942 118.628 109.856 118.475C109.75 118.314 109.657 118.192 109.578 118.108Z" fill="white"/>
<path d="M122.96 110.386C123.385 109.409 123.727 108.528 123.984 107.743C124.252 106.936 124.503 106.127 124.737 105.317C124.972 104.506 125.234 103.64 125.525 102.72C125.811 101.783 126.191 100.686 126.665 99.4283C127.37 97.5528 127.918 95.9859 128.309 94.7277C128.714 93.4633 128.993 92.4603 129.145 91.7188C127.949 92.04 126.886 92.4014 125.958 92.8032C125.044 93.1988 124.278 93.7248 123.659 94.3813C123.055 95.0316 122.618 95.8566 122.347 96.8565C122.071 97.8405 121.991 99.0833 122.106 100.585L121.356 100.869C121.343 100.544 121.304 100.073 121.238 99.4562C121.171 98.8397 121.071 98.185 120.937 97.4923C120.814 96.7775 120.663 96.083 120.483 95.4089C120.319 94.7286 120.134 94.1699 119.929 93.7326C120.847 93.4918 121.799 93.2197 122.784 92.9162C123.77 92.6127 124.738 92.2728 125.689 91.8964C126.652 91.498 127.571 91.0566 128.446 90.5723C129.337 90.0818 130.152 89.5182 130.891 88.8814C130.945 89.1724 131.008 89.3987 131.08 89.5603C131.152 89.7219 131.215 89.8439 131.268 89.9264C131.34 90.0184 131.404 90.0789 131.46 90.1077C130.353 93.0549 129.217 96.1962 128.055 99.5317C126.907 102.861 125.845 106.407 124.868 110.17C125.511 109.887 126.155 109.611 126.802 109.343C127.449 109.076 128.067 108.794 128.657 108.497C129.243 108.185 129.777 107.86 130.258 107.521C130.734 107.167 131.126 106.77 131.434 106.33C131.831 105.782 132.102 105.157 132.246 104.453C132.401 103.728 132.477 102.878 132.474 101.905L132.976 101.723C132.999 102.776 133.047 103.73 133.122 104.587C133.196 105.443 133.269 106.188 133.339 106.82C133.432 107.547 133.534 108.21 133.645 108.808C132.802 108.948 131.956 109.107 131.105 109.285C130.255 109.463 129.416 109.688 128.589 109.961C127.761 110.234 126.951 110.578 126.158 110.993C125.38 111.403 124.624 111.899 123.888 112.482C123.736 112.057 123.602 111.712 123.489 111.446C123.371 111.164 123.276 110.942 123.204 110.781C123.113 110.61 123.031 110.478 122.96 110.386Z" fill="white"/>
<path d="M136.875 93.9485C136.781 92.9369 136.655 92.1594 136.496 91.6162C136.351 91.0526 136.178 90.6385 135.977 90.3739C135.79 90.0889 135.585 89.909 135.362 89.8341C135.153 89.7388 134.927 89.6478 134.687 89.5609L134.675 88.9621C134.965 88.9357 135.311 88.8947 135.711 88.8393C136.111 88.7838 136.555 88.6917 137.043 88.563C137.544 88.414 138.081 88.2224 138.651 87.9881C139.222 87.7539 139.831 87.4428 140.478 87.0547L140.51 87.6232C140.254 87.7743 140.013 87.9798 139.789 88.2397C139.562 88.4834 139.364 88.8116 139.194 89.2242C139.024 89.6369 138.885 90.1582 138.779 90.7882C138.685 91.3979 138.645 92.1524 138.658 93.0517C138.669 93.9349 138.71 94.8017 138.782 95.6521C138.853 96.5026 139.014 97.2374 139.265 97.8566C139.532 98.4716 139.905 98.9165 140.385 99.1911C140.865 99.4658 141.517 99.4608 142.342 99.1763C143.169 98.9079 143.833 98.4068 144.333 97.673C144.849 96.935 145.222 96.1094 145.451 95.1962C145.695 94.2627 145.82 93.3019 145.827 92.3137C145.834 91.3255 145.75 90.4449 145.575 89.6719C145.423 88.9431 145.261 88.3171 145.089 87.7941C144.933 87.267 144.748 86.8308 144.536 86.4855C144.34 86.1361 144.106 85.8717 143.836 85.6923C143.582 85.5087 143.28 85.396 142.931 85.3543L143.095 84.7844C143.442 84.81 143.85 84.8109 144.32 84.7872C144.806 84.7593 145.287 84.6992 145.764 84.6069C146.254 84.4943 146.715 84.3476 147.146 84.1669C147.576 83.97 147.916 83.7214 148.167 83.4211L148.29 83.9404C148.063 84.1841 147.847 84.5003 147.64 84.8891C147.432 85.2617 147.27 85.7308 147.154 86.2963C147.036 86.8457 146.966 87.5077 146.946 88.2822C146.938 89.0364 147.021 89.909 147.194 90.8998C147.31 91.6047 147.462 92.2751 147.65 92.9109C147.836 93.5306 148.026 94.1825 148.221 94.8667C148.432 95.5467 148.628 96.2974 148.809 97.1187C149.004 97.9199 149.176 98.8442 149.324 99.8917C149.473 100.939 149.549 101.997 149.554 103.066C149.558 104.135 149.431 105.138 149.172 106.076C148.913 107.013 148.474 107.831 147.854 108.53C147.25 109.224 146.406 109.714 145.32 110.001C144.549 110.204 143.886 110.254 143.333 110.149C142.781 110.06 142.305 109.868 141.904 109.573C141.506 109.294 141.179 108.945 140.924 108.528C140.687 108.122 140.49 107.714 140.334 107.304C140.203 106.954 140.08 106.602 139.964 106.248C139.864 105.89 139.741 105.538 139.594 105.192C139.45 104.863 139.282 104.547 139.093 104.246C138.903 103.945 138.662 103.683 138.369 103.459C139.116 103.429 139.808 103.356 140.444 103.238C141.08 103.12 141.614 102.912 142.045 102.615C141.754 103.327 141.614 104.066 141.625 104.832C141.635 105.598 141.762 106.317 142.004 106.989C142.133 107.323 142.311 107.66 142.539 108.001C142.782 108.338 143.066 108.614 143.391 108.83C143.717 109.061 144.087 109.189 144.498 109.215C144.926 109.235 145.381 109.107 145.864 108.829C146.316 108.559 146.706 108.147 147.036 107.592C147.365 107.037 147.615 106.378 147.784 105.614C147.956 104.867 148.042 104.033 148.042 103.114C148.043 102.194 147.931 101.237 147.709 100.243C147.439 99.1437 147.201 98.2118 146.995 97.4471C146.788 96.6824 146.622 96.0242 146.495 95.4726C146.379 95.9212 146.212 96.4165 145.995 96.9586C145.794 97.4965 145.525 98.0188 145.188 98.5255C144.85 99.0161 144.44 99.4669 143.96 99.8779C143.477 100.273 142.905 100.557 142.244 100.732C142.102 100.769 141.912 100.811 141.674 100.857C141.451 100.899 141.202 100.923 140.925 100.929C140.648 100.935 140.351 100.914 140.034 100.864C139.715 100.797 139.388 100.683 139.055 100.52C138.773 100.377 138.536 100.197 138.342 99.981C138.164 99.7605 138.008 99.5258 137.875 99.2767C137.755 99.0074 137.651 98.7339 137.563 98.4563C137.49 98.1746 137.427 97.8988 137.372 97.629C137.268 97.1216 137.172 96.5617 137.085 95.9493C137.014 95.3328 136.944 94.6658 136.875 93.9485Z" fill="white"/>
<path d="M162.867 89.9785C162.379 89.9857 161.982 89.9022 161.677 89.7277C161.356 89.5373 161.109 89.3132 160.935 89.0555C160.762 88.7978 160.638 88.5232 160.563 88.2315C160.488 87.9398 160.453 87.6882 160.458 87.4766C160.454 86.8911 160.631 86.254 160.988 85.5655C161.329 84.861 161.888 84.202 162.667 83.5886C163.445 82.9589 164.449 82.4317 165.679 82.0067C166.924 81.5816 168.434 81.3559 170.208 81.3296C170.664 81.3228 171.248 81.3792 171.961 81.4987C172.675 81.6183 173.369 81.8439 174.045 82.1754C174.721 82.507 175.297 82.9784 175.771 83.5895C176.246 84.1843 176.465 84.9537 176.428 85.8977C176.414 86.5323 176.295 87.1116 176.072 87.6354C175.85 88.143 175.555 88.5947 175.188 88.9905C174.838 89.3861 174.416 89.7177 173.922 89.9853C173.428 90.2366 172.904 90.4234 172.348 90.5455C172.884 90.5863 173.434 90.7083 173.999 90.9114C174.564 91.0982 175.079 91.3752 175.543 91.7425C176.023 92.1095 176.411 92.5592 176.709 93.0916C177.006 93.624 177.155 94.2562 177.155 94.9882C177.149 96.0131 176.884 96.9686 176.36 97.8548C175.852 98.7245 175.08 99.4273 174.044 99.9632C173.023 100.499 171.747 100.835 170.215 100.972C168.698 101.108 166.921 100.947 164.881 100.489C165.05 100.194 165.194 99.9155 165.314 99.6535C165.45 99.3912 165.562 99.1211 165.649 98.8433C165.737 98.5492 165.809 98.239 165.865 97.9129C165.937 97.5865 166.002 97.2195 166.06 96.812C166.099 96.5349 166.148 96.1437 166.208 95.6386C166.284 95.1332 166.362 94.5546 166.441 93.9027C166.521 93.2509 166.601 92.5421 166.683 91.7763C166.765 91.0105 166.831 90.2369 166.881 89.4554C166.947 88.6573 166.989 87.8677 167.006 87.0867C167.04 86.3054 167.048 85.5651 167.031 84.8659C167.01 84.3294 166.996 83.8904 166.987 83.5489C166.978 83.1912 166.96 82.8987 166.933 82.6713C166.035 82.8148 165.232 83.0626 164.525 83.4147C163.834 83.7502 163.248 84.1575 162.765 84.6364C162.283 85.099 161.922 85.6168 161.682 86.1897C161.426 86.7465 161.315 87.3175 161.351 87.9026C161.388 88.4714 161.63 88.8907 162.08 89.1606C162.514 89.4144 163.024 89.4963 163.612 89.4062C163.906 89.3531 164.161 89.2436 164.376 89.0777C164.591 88.8956 164.767 88.6896 164.902 88.4599C165.037 88.2302 165.124 87.9767 165.163 87.6996C165.218 87.4223 165.224 87.1538 165.18 86.8942C165.137 86.6345 165.044 86.4407 164.9 86.3127C164.757 86.1847 164.596 86.1058 164.418 86.0759C164.24 86.0297 164.061 86.0242 163.881 86.0594C163.685 86.0949 163.521 86.1542 163.389 86.2375C163.29 86.3041 163.198 86.403 163.114 86.5344C163.03 86.6495 162.97 86.7805 162.935 86.9275C162.899 87.0744 162.904 87.2289 162.949 87.3909C162.994 87.5366 163.106 87.6569 163.282 87.7519C163.303 87.5564 163.38 87.3926 163.513 87.2605C163.646 87.1121 163.81 87.069 164.004 87.1312C164.117 87.1783 164.196 87.2666 164.242 87.3961C164.288 87.5093 164.294 87.6393 164.258 87.7863C164.222 87.9169 164.147 88.04 164.03 88.1556C163.914 88.2712 163.749 88.3387 163.538 88.3581C163.391 88.3766 163.236 88.3626 163.075 88.3162C162.913 88.2698 162.768 88.1906 162.641 88.0786C162.497 87.9669 162.386 87.8222 162.309 87.6444C162.215 87.4505 162.18 87.2152 162.202 86.9383C162.224 86.694 162.302 86.4733 162.436 86.2761C162.571 86.0789 162.737 85.9137 162.935 85.7807C163.134 85.6476 163.355 85.5467 163.601 85.478C163.847 85.4093 164.091 85.3812 164.335 85.3939C165.408 85.4268 165.939 86.0696 165.927 87.3223C165.921 87.6315 165.849 87.9416 165.712 88.2527C165.591 88.5636 165.398 88.8511 165.131 89.1153C164.866 89.3632 164.544 89.5714 164.166 89.7396C163.788 89.8916 163.356 89.9713 162.867 89.9785ZM169.06 82.4934C169.016 83.0146 168.938 83.6013 168.826 84.2537C168.731 84.8895 168.634 85.566 168.537 86.2832C168.44 87.0004 168.35 87.7418 168.269 88.5076C168.203 89.2568 168.179 90.0054 168.195 90.7535C168.909 90.8405 169.618 90.7405 170.324 90.4535C171.046 90.1662 171.698 89.758 172.279 89.2289C172.86 88.6997 173.329 88.0909 173.686 87.4024C174.059 86.6974 174.254 85.9788 174.27 85.2465C174.283 84.677 174.115 84.1834 173.766 83.7656C173.417 83.3478 172.977 83.0209 172.446 82.7848C171.914 82.5487 171.34 82.4026 170.723 82.3467C170.122 82.2906 169.568 82.3395 169.06 82.4934ZM168.194 91.9003C168.199 92.4045 168.187 92.9659 168.157 93.5845C168.127 94.203 168.08 94.8381 168.017 95.4897C167.97 96.1411 167.915 96.8007 167.851 97.4686C167.788 98.1202 167.726 98.7393 167.664 99.3258C168.31 99.544 169.032 99.6227 169.831 99.5621C170.629 99.5014 171.374 99.3033 172.065 98.9677C172.772 98.6156 173.36 98.1189 173.83 97.4775C174.3 96.8362 174.529 96.0357 174.517 95.0761C174.499 94.442 174.38 93.9151 174.162 93.4954C173.943 93.0757 173.65 92.7384 173.281 92.4836C172.929 92.2123 172.527 92.015 172.074 91.8915C171.638 91.7679 171.184 91.6933 170.712 91.6677C170.241 91.6422 169.785 91.6571 169.345 91.7124C168.905 91.7515 168.521 91.8141 168.194 91.9003Z" fill="white"/>
<path d="M183.177 95.0005C182.46 94.9685 181.767 94.866 181.1 94.693C180.45 94.506 179.883 94.2481 179.398 93.9193C178.898 93.5722 178.515 93.1504 178.246 92.654C177.964 92.1392 177.839 91.5392 177.872 90.8539C177.9 90.2171 178.069 89.698 178.379 89.2968C178.673 88.8935 179.027 88.605 179.442 88.4314C179.856 88.2579 180.307 88.1879 180.795 88.2214C181.268 88.2366 181.697 88.3525 182.08 88.569C182.482 88.7715 182.807 89.0703 183.055 89.4653C183.304 89.8442 183.414 90.2944 183.384 90.8159C183.343 91.5659 183.126 92.0783 182.733 92.3532C182.339 92.6281 181.891 92.7396 181.389 92.6877C180.888 92.6358 180.473 92.4726 180.145 92.198C179.801 91.9213 179.644 91.5221 179.674 91.0006C179.689 90.7399 179.748 90.5261 179.85 90.3593C179.937 90.1742 180.044 90.0327 180.171 89.935C180.283 89.8189 180.415 89.7465 180.566 89.7177C180.719 89.6729 180.86 89.6592 180.989 89.6768C181.265 89.6979 181.475 89.7922 181.619 89.9596C181.78 90.113 181.861 90.3293 181.86 90.6084C181.845 90.8692 181.751 91.0452 181.576 91.1363C181.403 91.2113 181.216 91.1942 181.016 91.0848C180.877 91.0166 180.81 90.8925 180.815 90.7125C180.804 90.5304 180.848 90.3721 180.946 90.2376C180.797 90.2501 180.667 90.3064 180.557 90.4063C180.447 90.5063 180.378 90.6694 180.351 90.8956C180.316 91.1865 180.366 91.448 180.502 91.68C180.64 91.8959 180.937 92.0184 181.393 92.0476C181.618 92.0783 181.803 92.0459 181.945 91.9503C182.104 91.857 182.232 91.7431 182.33 91.6086C182.428 91.4741 182.494 91.3353 182.528 91.192C182.579 91.0348 182.611 90.9077 182.623 90.8108C182.634 90.7138 182.628 90.5651 182.603 90.3646C182.594 90.1663 182.527 89.9684 182.403 89.7708C182.298 89.5593 182.124 89.3633 181.884 89.1827C181.659 89.0044 181.339 88.8705 180.924 88.7811C180.491 88.7056 180.127 88.7301 179.833 88.8543C179.542 88.9624 179.301 89.1267 179.11 89.3472C178.92 89.5676 178.776 89.8108 178.679 90.0767C178.581 90.3427 178.528 90.5818 178.519 90.7941C178.485 91.2164 178.568 91.6138 178.769 91.986C178.954 92.3561 179.267 92.6862 179.708 92.9761C180.134 93.2476 180.681 93.4699 181.349 93.6429C182.032 93.8181 182.833 93.9107 183.749 93.9205C184.065 93.3393 184.375 92.7329 184.681 92.101C184.986 91.4692 185.274 90.8433 185.545 90.2232C185.816 89.6032 186.061 88.996 186.28 88.4016C186.499 87.8073 186.672 87.256 186.798 86.7476C187.091 85.5392 187.085 84.5612 186.782 83.8137C186.48 83.0499 185.952 82.6003 185.198 82.4648L185.37 81.8477C185.655 81.9357 186.059 82.0483 186.584 82.1854C187.124 82.3247 187.714 82.4625 188.353 82.5988C188.995 82.7189 189.638 82.8229 190.283 82.9107C190.93 82.9824 191.518 82.9968 192.048 82.9539L192.026 83.345C191.808 83.3811 191.607 83.4194 191.422 83.4599C191.237 83.5004 191.081 83.5695 190.954 83.6673C190.83 83.7489 190.733 83.8753 190.663 84.0464C190.595 84.2015 190.578 84.4126 190.611 84.68C190.643 84.9635 190.685 85.503 190.737 86.2984C190.789 87.0938 190.857 88.031 190.94 89.11C191.024 90.1889 191.13 91.3531 191.259 92.6024C191.387 93.8517 191.546 95.0559 191.735 96.2148C191.924 97.3738 192.128 98.4035 192.348 99.3039C192.584 100.206 192.838 100.956 193.111 101.551C193.385 102.13 193.688 102.541 194.02 102.783C194.349 103.042 194.718 103.109 195.127 102.983C195.334 102.897 195.522 102.766 195.69 102.592C195.84 102.432 195.981 102.221 196.11 101.959C196.24 101.698 196.338 101.358 196.405 100.94L196.776 100.917C196.81 101.184 196.786 101.518 196.705 101.917C196.627 102.301 196.491 102.677 196.3 103.045C196.108 103.413 195.849 103.722 195.524 103.974C195.197 104.241 194.805 104.369 194.348 104.356C193.971 104.354 193.553 104.28 193.095 104.136C192.654 103.994 192.222 103.697 191.801 103.245C191.396 102.796 191.024 102.138 190.686 101.27C190.363 100.405 190.133 99.2488 189.996 97.8011C189.963 97.3861 189.93 96.9792 189.896 96.5804C189.864 96.1654 189.83 95.7666 189.794 95.384C189.322 95.3526 188.681 95.3063 187.868 95.245C187.056 95.1837 186.211 95.1261 185.332 95.0722C184.968 96.0573 184.674 96.937 184.45 97.7113C184.311 98.1851 184.223 98.5756 184.186 98.8826C184.166 99.1918 184.184 99.4489 184.241 99.6538C184.301 99.8425 184.412 100.006 184.576 100.143C184.756 100.282 184.985 100.42 185.264 100.557L185.179 101.062C184.912 100.961 184.498 100.863 183.935 100.77C183.373 100.677 182.767 100.603 182.118 100.547C181.483 100.51 180.846 100.497 180.205 100.509C179.579 100.538 179.076 100.626 178.698 100.772L178.604 99.921C178.96 99.8217 179.262 99.7642 179.509 99.7487C179.743 99.7148 179.954 99.6614 180.143 99.5886C180.334 99.4996 180.523 99.3611 180.71 99.173C180.898 98.9687 181.107 98.6605 181.337 98.2483C181.521 97.9448 181.77 97.5106 182.083 96.9456C182.413 96.3828 182.786 95.7356 183.201 95.0038L183.177 95.0005ZM189.14 85.4651C188.949 85.9647 188.716 86.5407 188.441 87.1931C188.166 87.8454 187.877 88.5452 187.575 89.2923C187.274 90.0233 186.961 90.7855 186.636 91.5789C186.328 92.3746 186.029 93.1551 185.741 93.9206C186.512 93.9107 187.233 93.9184 187.902 93.9438C188.587 93.9714 189.181 94.003 189.685 94.0388C189.523 92.243 189.389 90.6315 189.282 89.2044C189.174 87.7774 189.127 86.5309 189.14 85.4651Z" fill="white"/>
<path d="M195.083 103.129C195.385 103.115 195.669 103.07 195.935 102.994C196.201 102.919 196.444 102.795 196.665 102.622C196.904 102.437 197.117 102.186 197.303 101.868C197.489 101.55 197.653 101.141 197.795 100.641C197.883 100.311 198.003 99.8388 198.154 99.2231C198.324 98.596 198.501 97.8951 198.687 97.1204C198.888 96.3502 199.09 95.538 199.293 94.6838C199.499 93.8137 199.693 92.9652 199.873 92.1383C200.069 91.3159 200.237 90.5446 200.378 89.8245C200.534 89.1089 200.648 88.508 200.721 88.0219C200.766 87.663 200.746 87.3361 200.66 87.041C200.579 86.73 200.446 86.4634 200.261 86.2412C200.096 86.0076 199.897 85.8149 199.664 85.6632C199.451 85.5001 199.246 85.3733 199.049 85.2828L199.184 84.6626C199.426 84.8506 199.693 85.0375 199.985 85.2232C200.296 85.3975 200.656 85.5774 201.064 85.7629C201.472 85.9484 201.939 86.1338 202.463 86.3191C203.004 86.5089 203.629 86.6894 204.34 86.8608C204.813 86.9803 205.338 87.1236 205.917 87.2906C206.499 87.4417 207.069 87.6485 207.626 87.9109C208.188 88.1575 208.712 88.4608 209.198 88.8211C209.704 89.1699 210.109 89.5995 210.413 90.1099C210.717 90.6203 210.894 91.2207 210.943 91.9109C211.011 92.5898 210.896 93.3848 210.597 94.296C210.233 95.3571 209.793 96.1936 209.277 96.8054C208.781 97.4058 208.237 97.8405 207.647 98.1095C207.075 98.3671 206.483 98.4919 205.87 98.4839C205.275 98.4645 204.706 98.3679 204.163 98.194C204.82 98.84 205.312 99.5908 205.641 100.446C205.97 101.302 206.181 102.276 206.276 103.368C206.338 103.995 206.396 104.569 206.448 105.091C206.516 105.618 206.639 106.084 206.816 106.491C206.99 106.913 207.24 107.255 207.565 107.518C207.886 107.797 208.342 107.996 208.931 108.115L208.686 108.551C208.43 108.427 208.068 108.297 207.599 108.162C207.126 108.042 206.629 107.924 206.106 107.807C205.579 107.705 205.067 107.617 204.568 107.54C204.085 107.468 203.692 107.44 203.39 107.454L203.348 106.96C203.85 106.868 204.228 106.622 204.481 106.222C204.735 105.822 204.836 105.167 204.785 104.256C204.75 103.807 204.708 103.279 204.657 102.672C204.61 102.05 204.52 101.433 204.388 100.82C204.256 100.207 204.058 99.626 203.795 99.0769C203.533 98.5278 203.178 98.0958 202.732 97.7809C202.254 97.457 201.829 97.233 201.457 97.1087C201.101 96.989 200.799 96.9271 200.55 96.923C200.394 97.6386 200.244 98.3644 200.1 99.1004C199.96 99.8205 199.883 100.517 199.869 101.189C199.859 101.845 199.935 102.45 200.097 103.004C200.259 103.558 200.575 104.013 201.046 104.368L200.845 104.716C200.587 104.608 200.218 104.467 199.74 104.296C199.259 104.14 198.741 103.999 198.187 103.873C197.629 103.762 197.066 103.676 196.498 103.613C195.942 103.571 195.459 103.617 195.047 103.752L195.083 103.129ZM203.261 87.6904C202.937 88.3405 202.627 89.037 202.332 89.7801C202.056 90.5119 201.796 91.2481 201.551 91.9888C201.326 92.7182 201.131 93.4225 200.966 94.1018C200.801 94.7811 200.681 95.3717 200.604 95.8737C201.551 96.3331 202.425 96.6699 203.226 96.8842C204.031 97.0826 204.759 97.0984 205.41 96.9314C206.062 96.7645 206.634 96.3888 207.127 95.8043C207.639 95.2084 208.069 94.3436 208.416 93.2098C208.631 92.5282 208.697 91.9217 208.613 91.3905C208.545 90.8637 208.38 90.4019 208.117 90.005C207.855 89.608 207.52 89.2748 207.114 89.0053C206.726 88.7244 206.303 88.4923 205.844 88.3092C205.386 88.1261 204.926 87.985 204.466 87.8859C204.021 87.7913 203.619 87.7261 203.261 87.6904Z" fill="white"/>
<path d="M212.492 97.3678C212.047 97.1669 211.711 96.9176 211.484 96.6199C211.247 96.3001 211.087 95.9794 211.003 95.6578C210.92 95.3362 210.886 95.0193 210.901 94.7069C210.917 94.3945 210.957 94.1376 211.022 93.9362C211.186 93.3717 211.529 92.8343 212.05 92.3242C212.561 91.7919 213.257 91.3964 214.139 91.1378C215.025 90.8638 216.087 90.7842 217.324 90.899C218.576 91.0206 220.011 91.4463 221.628 92.1762C222.043 92.3637 222.557 92.6668 223.17 93.0854C223.783 93.5039 224.349 94.0166 224.867 94.6232C225.386 95.2298 225.773 95.928 226.028 96.7176C226.289 97.4918 226.267 98.3249 225.963 99.2169C225.769 99.8212 225.496 100.328 225.143 100.736C224.796 101.13 224.4 101.439 223.954 101.663C223.522 101.894 223.044 102.034 222.52 102.081C222 102.112 221.47 102.068 220.931 101.949C221.406 102.217 221.87 102.568 222.325 103.004C222.784 103.424 223.172 103.91 223.487 104.46C223.818 105.018 224.042 105.615 224.159 106.254C224.276 106.893 224.23 107.564 224.021 108.268C223.722 109.251 223.208 110.057 222.479 110.686C221.77 111.306 220.868 111.653 219.774 111.727C218.695 111.808 217.441 111.588 216.011 111.067C214.597 110.552 213.03 109.641 211.31 108.332C211.548 108.12 211.759 107.914 211.942 107.713C212.141 107.518 212.319 107.306 212.478 107.076C212.642 106.831 212.796 106.563 212.94 106.274C213.099 105.99 213.263 105.665 213.432 105.298C213.547 105.048 213.704 104.693 213.903 104.233C214.116 103.779 214.353 103.256 214.611 102.663C214.87 102.07 215.146 101.423 215.44 100.721C215.733 100.02 216.014 99.3038 216.283 98.5735C216.572 97.8343 216.836 97.0929 217.075 96.3492C217.329 95.6121 217.548 94.9038 217.733 94.2241C217.868 93.6994 217.98 93.271 218.07 92.939C218.165 92.5914 218.232 92.3024 218.272 92.0721C217.416 91.8278 216.617 91.7243 215.875 91.7618C215.152 91.7904 214.503 91.9323 213.929 92.1875C213.359 92.4271 212.883 92.7712 212.501 93.2198C212.109 93.6461 211.845 94.1483 211.711 94.7262C211.581 95.2885 211.681 95.7952 212.012 96.2461C212.332 96.6748 212.772 96.971 213.331 97.1346C213.613 97.2086 213.876 97.2117 214.118 97.1438C214.366 97.0604 214.584 96.937 214.772 96.7737C214.961 96.6103 215.112 96.4037 215.227 96.1536C215.356 95.9103 215.438 95.6547 215.473 95.3867C215.509 95.1187 215.479 94.8926 215.386 94.7083C215.292 94.5241 215.169 94.3797 215.015 94.275C214.867 94.1549 214.707 94.0735 214.533 94.0308C214.345 93.9814 214.18 93.9687 214.036 93.9926C213.927 94.0144 213.816 94.0705 213.702 94.161C213.592 94.236 213.501 94.3365 213.426 94.4626C213.352 94.5886 213.312 94.7392 213.306 94.9142C213.306 95.0737 213.373 95.2368 213.506 95.4035C213.58 95.2242 213.697 95.0994 213.856 95.029C214.019 94.9431 214.18 94.9714 214.338 95.1137C214.427 95.2071 214.474 95.3258 214.478 95.4698C214.488 95.5984 214.455 95.7257 214.381 95.8517C214.311 95.9623 214.207 96.0484 214.069 96.1099C213.93 96.1715 213.762 96.1665 213.564 96.095C213.425 96.0502 213.289 95.9711 213.156 95.8577C213.022 95.7442 212.914 95.6065 212.83 95.4444C212.731 95.2757 212.672 95.0894 212.653 94.8855C212.624 94.6594 212.659 94.418 212.759 94.1612C212.848 93.9355 212.982 93.7565 213.161 93.6241C213.339 93.4918 213.537 93.4038 213.755 93.3602C213.973 93.3166 214.203 93.314 214.446 93.3525C214.688 93.3909 214.918 93.4681 215.136 93.5841C216.1 94.0725 216.397 94.9166 216.029 96.1164C215.934 96.4108 215.78 96.6784 215.567 96.9192C215.368 97.1667 215.11 97.3609 214.793 97.5017C214.481 97.6269 214.129 97.69 213.738 97.691C213.352 97.6764 212.937 97.5687 212.492 97.3678ZM220.253 92.8065C220.064 93.289 219.825 93.82 219.537 94.3996C219.268 94.9704 218.987 95.5799 218.694 96.2282C218.4 96.8765 218.107 97.5513 217.813 98.2528C217.54 98.9454 217.303 99.6548 217.103 100.381C217.726 100.769 218.399 100.975 219.122 100.999C219.859 101.03 220.567 100.915 221.246 100.654C221.924 100.392 222.524 100.007 223.045 99.4965C223.586 98.9775 223.968 98.3694 224.192 97.6722C224.367 97.1299 224.356 96.5836 224.159 96.0334C223.962 95.4833 223.656 94.9815 223.241 94.5281C222.827 94.0747 222.347 93.6898 221.803 93.3733C221.274 93.0636 220.758 92.8747 220.253 92.8065ZM216.774 101.483C216.635 101.97 216.463 102.505 216.259 103.087C216.054 103.669 215.83 104.26 215.587 104.86C215.358 105.466 215.119 106.077 214.87 106.692C214.626 107.292 214.392 107.86 214.168 108.398C214.692 108.883 215.325 109.266 216.066 109.548C216.808 109.829 217.541 109.956 218.263 109.927C219.006 109.89 219.682 109.663 220.292 109.246C220.901 108.829 221.338 108.157 221.603 107.229C221.767 106.612 221.811 106.055 221.733 105.558C221.654 105.061 221.485 104.612 221.223 104.21C220.982 103.799 220.673 103.438 220.297 103.127C219.937 102.822 219.546 102.557 219.126 102.332C218.706 102.107 218.288 101.927 217.873 101.793C217.462 101.643 217.096 101.54 216.774 101.483Z" fill="white"/>
<path d="M228.812 104.297C227.873 103.677 227.319 102.921 227.149 102.029C226.98 101.138 227.136 100.264 227.618 99.4079C227.856 98.9874 228.204 98.637 228.661 98.3569C229.105 98.068 229.645 97.9177 230.283 97.906C230.921 97.8942 231.65 98.0552 232.469 98.3889C233.302 98.7315 234.217 99.3076 235.214 100.117C235.434 100.296 235.801 100.579 236.316 100.966C236.837 101.338 237.451 101.76 238.157 102.231C238.884 102.696 239.682 103.179 240.551 103.678C241.441 104.171 242.354 104.613 243.29 105.002C243.152 105.314 242.968 105.712 242.738 106.195C242.521 106.687 242.298 107.193 242.069 107.714C241.839 108.236 241.63 108.751 241.44 109.26C241.258 109.754 241.145 110.169 241.103 110.505L240.447 110.199C240.788 109.425 241.004 108.694 241.096 108.008C241.201 107.331 241.116 106.685 240.842 106.07C240.589 105.449 240.101 104.841 239.379 104.245C238.671 103.658 237.671 103.056 236.379 102.439C235.901 103.164 235.392 104.022 234.85 105.012C234.329 105.996 233.77 107.165 233.173 108.521C234.103 109.441 234.934 109.868 235.666 109.802C236.418 109.73 237.099 109.163 237.707 108.101L238.161 108.507C237.968 108.784 237.736 109.151 237.465 109.608C237.194 110.064 236.92 110.567 236.643 111.115C236.38 111.672 236.131 112.258 235.896 112.871C235.667 113.469 235.497 114.057 235.383 114.634L234.893 114.549C235.001 114.026 235.085 113.536 235.146 113.078C235.213 112.606 235.183 112.176 235.055 111.788C234.947 111.395 234.701 111.036 234.316 110.713C233.951 110.385 233.376 110.093 232.592 109.839C232.291 110.601 231.978 111.413 231.652 112.273C231.332 113.119 231 114.033 230.655 115.015C230.658 115.208 230.681 115.414 230.725 115.633C230.79 115.846 230.912 116.087 231.093 116.355C231.28 116.609 231.542 116.891 231.879 117.202C232.223 117.499 232.676 117.827 233.238 118.187C234.013 118.702 234.696 118.987 235.287 119.041C235.899 119.088 236.413 119.017 236.831 118.826C237.263 118.644 237.605 118.386 237.858 118.051C238.131 117.711 238.323 117.414 238.435 117.16L239.002 117.609L236.707 122.041C236.405 121.848 235.998 121.596 235.484 121.286C234.977 120.962 234.401 120.612 233.758 120.238C233.134 119.858 232.456 119.462 231.724 119.051C231.012 118.633 230.293 118.23 229.568 117.842C228.856 117.463 228.159 117.112 227.475 116.789C226.805 116.474 226.197 116.219 225.651 116.022L225.725 115.496C226.051 115.552 226.367 115.573 226.672 115.559C226.984 115.529 227.291 115.391 227.593 115.145C227.908 114.908 228.238 114.518 228.583 113.975C228.934 113.417 229.322 112.634 229.748 111.627C230.128 110.725 230.534 109.744 230.966 108.683C231.412 107.632 231.837 106.606 232.243 105.605C232.655 104.59 233.034 103.649 233.381 102.782C233.734 101.901 234.019 101.195 234.235 100.665C233.889 100.253 233.425 99.8697 232.843 99.516C232.267 99.1474 231.676 98.9124 231.071 98.8112C230.458 98.6862 229.875 98.7331 229.322 98.9517C228.761 99.1467 228.327 99.5943 228.019 100.294C227.842 100.696 227.756 101.09 227.762 101.476C227.768 101.862 227.838 102.222 227.972 102.556C228.112 102.875 228.307 103.171 228.555 103.445C228.797 103.695 229.075 103.902 229.389 104.065C229.697 104.243 229.997 104.34 230.29 104.355C230.582 104.37 230.846 104.329 231.082 104.232C231.324 104.12 231.536 103.959 231.716 103.75C231.896 103.541 232.021 103.296 232.092 103.017C232.24 102.481 232.191 101.973 231.946 101.491C231.701 101.01 231.3 100.724 230.742 100.634C230.511 100.601 230.267 100.636 230.011 100.739C229.754 100.842 229.571 101.059 229.461 101.389C229.402 101.562 229.391 101.746 229.428 101.942C229.472 102.122 229.552 102.279 229.67 102.411C229.773 102.535 229.907 102.63 230.071 102.697C230.228 102.74 230.401 102.726 230.59 102.656C230.466 102.577 230.38 102.474 230.33 102.347C230.267 102.211 230.268 102.069 230.334 101.92C230.373 101.831 230.437 101.766 230.525 101.727C230.619 101.673 230.713 101.657 230.809 101.68C230.924 101.696 231.024 101.75 231.107 101.842C231.21 101.927 231.276 102.055 231.306 102.227C231.336 102.399 231.304 102.57 231.212 102.74C231.119 102.91 230.982 103.041 230.8 103.135C230.639 103.223 230.439 103.257 230.201 103.238C229.984 103.214 229.751 103.103 229.504 102.907C229.208 102.66 229.031 102.365 228.971 102.021C228.918 101.663 228.957 101.315 229.088 100.979C229.224 100.589 229.509 100.303 229.94 100.121C230.365 99.9154 230.84 99.9526 231.367 100.233C231.784 100.442 232.084 100.701 232.265 101.008C232.459 101.323 232.573 101.644 232.605 101.97C232.657 102.29 232.642 102.605 232.558 102.914C232.495 103.218 232.414 103.481 232.316 103.704C232.224 103.913 232.071 104.12 231.857 104.327C231.663 104.528 231.414 104.674 231.11 104.766C230.82 104.866 230.477 104.886 230.083 104.824C229.702 104.771 229.279 104.595 228.812 104.297Z" fill="white"/>
<path d="M238.764 125.033C239.035 125.138 239.3 125.206 239.559 125.238C239.817 125.269 240.071 125.243 240.321 125.162C240.591 125.076 240.858 124.915 241.122 124.678C241.387 124.441 241.661 124.107 241.944 123.676C242.126 123.39 242.381 122.977 242.709 122.436C243.057 121.892 243.435 121.279 243.843 120.597C244.264 119.926 244.698 119.214 245.147 118.462C245.604 117.695 246.042 116.945 246.462 116.21C246.895 115.486 247.287 114.801 247.638 114.154C248.001 113.519 248.292 112.978 248.51 112.533C248.663 112.201 248.748 111.875 248.766 111.554C248.792 111.219 248.758 110.906 248.665 110.617C248.593 110.325 248.478 110.059 248.32 109.819C248.183 109.576 248.042 109.372 247.897 109.207L248.212 108.656C248.366 108.934 248.543 109.221 248.742 109.517C248.962 109.809 249.223 110.126 249.525 110.467C249.827 110.809 250.181 111.173 250.586 111.56C251.004 111.957 251.5 112.38 252.073 112.826C252.453 113.129 252.872 113.475 253.331 113.865C253.798 114.242 254.236 114.667 254.646 115.143C255.064 115.604 255.431 116.106 255.747 116.648C256.084 117.187 256.307 117.765 256.414 118.382C256.522 118.999 256.489 119.653 256.314 120.345C256.16 121.033 255.808 121.763 255.257 122.533C254.6 123.423 253.948 124.065 253.299 124.458C252.671 124.848 252.053 125.057 251.447 125.087C250.861 125.113 250.298 125.002 249.759 124.753C249.24 124.5 248.768 124.182 248.342 123.798C248.719 124.686 248.917 125.612 248.938 126.575C248.958 127.538 248.838 128.57 248.577 129.671C248.435 130.306 248.304 130.888 248.186 131.418C248.08 131.958 248.041 132.46 248.07 132.926C248.09 133.406 248.203 133.838 248.407 134.222C248.603 134.62 248.943 134.993 249.425 135.341L249.071 135.67C248.885 135.448 248.606 135.179 248.234 134.862C247.854 134.56 247.452 134.249 247.027 133.929C246.593 133.623 246.169 133.335 245.752 133.064C245.348 132.804 245.01 132.621 244.739 132.516L244.858 132.018C245.33 132.127 245.741 132.036 246.091 131.746C246.442 131.456 246.738 130.857 246.98 129.95C247.091 129.498 247.22 128.967 247.366 128.356C247.521 127.732 247.636 127.095 247.713 126.445C247.789 125.796 247.798 125.152 247.739 124.514C247.68 123.876 247.503 123.315 247.208 122.833C246.888 122.329 246.583 121.944 246.294 121.676C246.017 121.419 245.77 121.24 245.551 121.138C245.188 121.774 244.826 122.422 244.467 123.083C244.116 123.729 243.828 124.377 243.604 125.027C243.388 125.662 243.264 126.281 243.233 126.885C243.201 127.488 243.337 128.056 243.641 128.587L243.354 128.847C243.16 128.64 242.878 128.358 242.51 128.003C242.134 127.662 241.721 127.321 241.271 126.979C240.813 126.652 240.343 126.347 239.861 126.062C239.383 125.802 238.941 125.657 238.535 125.626L238.764 125.033ZM250.859 113.21C250.367 113.716 249.874 114.272 249.379 114.88C248.904 115.485 248.442 116.099 247.992 116.725C247.563 117.347 247.168 117.956 246.808 118.553C246.449 119.15 246.156 119.678 245.93 120.137C246.622 120.958 247.288 121.63 247.928 122.154C248.576 122.664 249.214 122.965 249.843 123.059C250.471 123.153 251.095 123.012 251.715 122.637C252.355 122.258 253.008 121.584 253.672 120.616C254.077 120.037 254.326 119.472 254.42 118.921C254.526 118.381 254.526 117.866 254.419 117.376C254.312 116.886 254.122 116.43 253.848 116.007C253.594 115.581 253.293 115.188 252.946 114.829C252.598 114.47 252.237 114.152 251.861 113.874C251.498 113.607 251.164 113.386 250.859 113.21Z" fill="white"/>
<defs>
<filter id="filter0_d" x="141.043" y="148.883" width="61.4826" height="28.0156" filterUnits="userSpaceOnUse" color-interpolation-filters="sRGB">
<feFlood flood-opacity="0" result="BackgroundImageFix"/>
<feColorMatrix in="SourceAlpha" type="matrix" values="0 0 0 0 0 0 0 0 0 0 0 0 0 0 0 0 0 0 127 0" result="hardAlpha"/>
<feOffset dy="4"/>
<feGaussianBlur stdDeviation="2"/>
<feComposite in2="hardAlpha" operator="out"/>
<feColorMatrix type="matrix" values="0 0 0 0 0 0 0 0 0 0 0 0 0 0 0 0 0 0 0.25 0"/>
<feBlend mode="normal" in2="BackgroundImageFix" result="effect1_dropShadow"/>
<feBlend mode="normal" in="SourceGraphic" in2="effect1_dropShadow" result="shape"/>
</filter>
</defs>
</svg>
